<svg id="Layer_1" data-name="Layer 1" xmlns="http://www.w3.org/2000/svg" viewBox="0 0 141.1 141.1"><defs><style>.cls-1,.cls-4{fill:#48bfaa;}.cls-1{stroke:#48bfaa;}.cls-1,.cls-3{stroke-miterlimit:10;}.cls-2{fill:#fff;}.cls-3{fill:none;stroke:#fff;stroke-width:4px;}</style></defs><circle class="cls-1" cx="70.55" cy="70.55" r="70.05"/><path class="cls-2" d="M79,62.05c-7.21,3.18-7.7,12.73-8.22,19.48-.67,8.76,0,18.7,8,24.1a17.5,17.5,0,0,0,21.78-1.89c5.82-5.74,6-14.66,2.76-21.75-3.88-8.44-10.8-17.22-20-20-2.47-.74-3.52,3.12-1.06,3.85C89.26,68,94.47,74.39,98,80.56c3.18,5.54,5.07,12.35,1.43,18.18C96,104.22,88.66,106,82.89,103.39c-7.33-3.35-8.62-11.57-8.32-18.82a63.13,63.13,0,0,1,1.2-11.22c.72-3.23,2-6.43,5.21-7.85a2,2,0,0,0,.72-2.74A2,2,0,0,0,79,62.05Z"/><path class="cls-2" d="M95.75,85.75c3.88-1.7,7.5-4.18,11.16-6.32,2.91-1.71,6.44-4,10-3,2.75.82,3.66,3.91,3.89,6.47a36.85,36.85,0,0,1-.63,10.32c-1.29,6.54-4.66,12.91-11.07,15.64a11.78,11.78,0,0,1-15.27-5.19C90.06,97,93.28,89.4,99,85a2.25,2.25,0,0,0,.79-3,2.23,2.23,0,0,0-3-.79c-7.06,4.29-11,13.71-8.52,21.68a17.78,17.78,0,0,0,7,9.38,15.75,15.75,0,0,0,11.53,2.23c8.62-1.47,14.67-8.75,17.1-16.76a42.06,42.06,0,0,0,1.64-12.87c-.08-3.76-.81-8-3.73-10.71-4-3.65-9.63-2.64-14-.31-2.4,1.27-4.68,2.79-7,4.22a73.47,73.47,0,0,0-7.29,4.75,1.85,1.85,0,0,0-.15,2.43,1.88,1.88,0,0,0,2.39.48Z"/><path class="cls-2" d="M22.84,59.77a48.47,48.47,0,0,0,5.42-4.3c1.78-1.5,3.56-3,5.33-4.48L44.36,41.8c7.12-6.07,14.2-12.19,21.39-18.19,2-1.68-.91-4.63-2.9-2.89-7,6.09-14.08,12.06-21.14,18.08l-10.58,9c-1.76,1.5-3.5,3-5.25,4.54a47.56,47.56,0,0,0-5.13,4.68c-1.22,1.42.32,3.79,2.09,2.71Z"/><path class="cls-2" d="M65.42,23.76c7.24-1.13,14.28-1,21.23,1.49a36.16,36.16,0,0,1,9.28,5,33.94,33.94,0,0,1,3.88,3.41c.67.69,1.32,1.4,1.93,2.14a7.25,7.25,0,0,0,2.14,2.2,2.2,2.2,0,0,0,3.18-2.44c-.23-1.57-1.88-3.07-2.91-4.21a35.49,35.49,0,0,0-3.23-3.14A40.24,40.24,0,0,0,93.11,23a41.77,41.77,0,0,0-18.22-4.7,28,28,0,0,0-10.55,1.59,2,2,0,0,0,1.08,3.92Z"/><path class="cls-2" d="M55,51.38l48.05-12.3c2.49-.64,1.44-4.5-1.06-3.86L54,47.53c-2.49.63-1.43,4.49,1.07,3.85Z"/><path class="cls-2" d="M23.89,59.35l14.22-3.64A2,2,0,1,0,37,51.86L22.83,55.5a2,2,0,1,0,1.06,3.85Z"/><path class="cls-2" d="M21,68.49a5.08,5.08,0,0,1,3.16,1.71l.16.19c-.08-.1-.08-.1,0,0l.3.47c.08.14.15.28.22.42-.12-.25,0,.14.06.2s.09.3.13.46.08.53,0,.15a6.33,6.33,0,0,1,0,.87c0,.06-.07.53,0,.14l-.09.44a6.32,6.32,0,0,1-.27.84c.13-.33-.06.12-.08.15s-.14.27-.22.4l-.25.38c-.21.31.11-.11-.12.14s-.43.45-.66.67.12,0-.16.13l-.41.26-.51.26c-.11,0-.1,0,0,0l-.23.09c-.35.13-.71.23-1.07.33a1.76,1.76,0,0,0,.94,3.4A8.46,8.46,0,0,0,28.42,73c.17-3.79-3-6.94-6.58-7.54a1.64,1.64,0,0,0-2,1.11,1.61,1.61,0,0,0,1.12,2Z"/><line class="cls-3" x1="104.97" y1="36.17" x2="104.97" y2="75.68"/><path class="cls-3" d="M21.52,78.87l.56,14.32"/><path class="cls-3" d="M22,58.28l-.06,9"/><path class="cls-3" d="M96.92,77.87l8.15-1.71"/><path class="cls-3" d="M21.85,93.67q26.13-5.6,52.28-11"/><path class="cls-2" d="M90.93,50.05a3.19,3.19,0,0,0,.3.68,2,2,0,0,1,.14.25s.14.29.07.14a2.7,2.7,0,0,1,.18.57c0,.1,0,.21.07.31,0-.18,0,.09,0,.15a4.12,4.12,0,0,1,0,.61c0,.09,0,.18,0,.28s0,.16,0,.05,0,.07,0,.09a5.82,5.82,0,0,1-.14.6c0,.09,0,.18-.09.27s-.14.35-.07.19c-.08.17-.16.34-.26.51s-.11.18-.17.27-.2.27-.09.13a4.38,4.38,0,0,1-.41.45,1.8,1.8,0,0,1-.2.19l-.11.09c.12-.1,0,0,0,0a4.48,4.48,0,0,1-.47.28s-.32.13-.14.07l-.31.1-.28.07-.16,0c.15,0,0,0,0,0a5.3,5.3,0,0,1-.69,0c-.17,0,.13,0,0,0l-.15,0-.31-.08a2.82,2.82,0,0,1-.55-.2,4,4,0,0,1-1-.71,4.07,4.07,0,0,1-1.27-2.15l0-.23c0,.1,0-.07,0-.07s0-.14,0-.21v-.32c0-.05,0-.11,0-.16s0,.13,0,0a4.64,4.64,0,0,1,.17-.64c0-.05.11-.25,0-.1,0-.11.11-.22.17-.33l.14-.23s.17-.21.06-.09c.14-.16.29-.32.44-.46l.18-.16.16-.11a3.16,3.16,0,0,1,.56-.33l.29-.15c-.16.07.1,0,.15,0a5.27,5.27,0,0,1,.68-.19c.06,0,.39-.07.19,0l.33,0H89c.16,0-.15,0,0,0l.36.08.31.08.22.08.25.13.28.16a4.37,4.37,0,0,0,.78.39.86.86,0,0,0,.92-.31.9.9,0,0,0,.06-1,3.73,3.73,0,0,0-2.79-1.58,6.38,6.38,0,0,0-3.18.34,5.34,5.34,0,0,0-3.64,5.13,6.24,6.24,0,0,0,4.34,5.44,5.18,5.18,0,0,0,5.91-2.37,6.41,6.41,0,0,0,.95-3.47c0-1.15-.42-2.83-1.52-3.41a.89.89,0,0,0-1.29,1Z"/><path class="cls-2" d="M59.54,68.06A4.69,4.69,0,0,1,64,69.68a4,4,0,0,1,0,4.71A3.88,3.88,0,0,1,59.59,76a4.07,4.07,0,0,1-3-3.56,4.27,4.27,0,0,1,.79-2.65,5.41,5.41,0,0,1,2.33-1.69.77.77,0,0,0,.32-1,.81.81,0,0,0-.92-.46,4.78,4.78,0,0,0-2.79,1.93,6.19,6.19,0,0,0-1.22,3.16,5.47,5.47,0,0,0,3.31,5.34,5.34,5.34,0,0,0,6.24-1.21,5.62,5.62,0,0,0,1-6.28c-1.12-2.19-4-3.78-6.45-2.88a.71.71,0,0,0,.38,1.36Z"/><path class="cls-2" d="M69.22,54.66A3.88,3.88,0,0,0,66.4,58.2a3.94,3.94,0,0,0,1.95,4,4.57,4.57,0,0,0,4.56-.32,3.8,3.8,0,0,0,1.53-4.49A4.92,4.92,0,0,0,72.54,55a3.57,3.57,0,0,0-3-.52.69.69,0,0,0,.18,1.35,4.21,4.21,0,0,1,.5,0h.39c.13,0-.09,0,0,0a3.89,3.89,0,0,1,.49.12,1.71,1.71,0,0,1,.39.17,3.22,3.22,0,0,1,1.34,1.32,3,3,0,0,1,.31.88.5.5,0,0,0,0,.12s0-.12,0,0v.23a1.33,1.33,0,0,1,0,.42,2.33,2.33,0,0,1-.07.25,1.31,1.31,0,0,0,0,.14c0-.06-.06.12-.08.15a1.28,1.28,0,0,1-.11.2l-.14.2c.08-.1,0,0,0,.05s-.22.22-.33.33l-.09.07-.17.11a3.3,3.3,0,0,1-.41.23l-.1,0s.13,0,0,0l-.19.07-.46.12-.17,0h-.61l-.24,0c.14,0,0,0-.06,0a3.45,3.45,0,0,1-.46-.12l-.06,0-.21-.1-.2-.12-.15-.1,0,0a.47.47,0,0,0-.1-.1l-.14-.14,0-.06-.15-.22a1,1,0,0,1-.1-.17l-.07-.15L68,59.65,68,59.42a1.74,1.74,0,0,1,0-.22c0-.06,0-.2,0-.06a2.5,2.5,0,0,1,0-.47,2.44,2.44,0,0,1,0-.27s0-.07,0-.1,0,.12,0,0a4.48,4.48,0,0,1,.11-.5c0-.08,0-.17.08-.26l.06-.16,0-.06.06-.12a1.28,1.28,0,0,1,.11-.2l.15-.23s.07-.09,0,0,.06-.06.07-.08.23-.23.35-.34l.17-.16s.1-.08,0,0l.11-.08a3.4,3.4,0,0,1,.45-.28.62.62,0,0,0-.48-1.13Z"/><path class="cls-2" d="M72.12,30.4c-2.48-1.58-5.91-.42-7.49,1.91a6.58,6.58,0,0,0,1,8.13,7.51,7.51,0,0,0,8.64,1A6.94,6.94,0,0,0,77.85,34,5.77,5.77,0,0,0,75,30.47c-1.28-.67-3.24-1-4.48-.1a.82.82,0,0,0,.63,1.49,4.2,4.2,0,0,1,2.82.07,4.06,4.06,0,0,1,2.08,2c.93,2.05-.28,4.52-2,5.71a5.87,5.87,0,0,1-6.4.12,4.92,4.92,0,0,1-1.84-5.8,4.42,4.42,0,0,1,5.73-2.11c.85.34,1.32-1,.6-1.43Z"/><path class="cls-2" d="M41.09,55.25a11.16,11.16,0,0,0,0-2.77,6.54,6.54,0,0,1,.47-2.19,6.09,6.09,0,0,1,2.61-3,5.87,5.87,0,0,1,4-.62,6.3,6.3,0,0,1,2.08.83c.78.47,1.31,1.22,2.11,1.7,1,.63,2.61-.43,2.16-1.65-.77-2.09-3.44-3.5-5.49-4a9.08,9.08,0,0,0-10.63,5.65,9,9,0,0,0-.65,3.15,4.67,4.67,0,0,0,.93,3.49,1.44,1.44,0,0,0,2.38-.63Z"/><path class="cls-2" d="M38.42,55.63a9.36,9.36,0,0,0,9,4.46,9,9,0,0,0,7.7-6.83,9.49,9.49,0,0,0,.3-2.91,7.78,7.78,0,0,0-.83-3.23c-.82-1.64-3.67-.49-3,1.26A13.26,13.26,0,0,1,52,49.74c0,.18.09.35.12.52,0-.23,0,.38,0,.45a5.63,5.63,0,0,1,0,.71s0,.52,0,.27a8.29,8.29,0,0,1-.34,1.39,8.11,8.11,0,0,1-.95,1.77,5.23,5.23,0,0,1-1.86,1.55,6,6,0,0,1-4.24.34A6.21,6.21,0,0,1,41,54.11a1.51,1.51,0,0,0-2.6,1.52Z"/><path class="cls-2" d="M104.76,74.2h-.38a1.29,1.29,0,0,0-.64.15,1.16,1.16,0,0,0-.53.34,1.23,1.23,0,0,0-.35.53,1.28,1.28,0,0,0-.14.64l.06.44a1.65,1.65,0,0,0,.43.73l.33.26a1.66,1.66,0,0,0,.84.23h.38a1.28,1.28,0,0,0,.64-.14,1.21,1.21,0,0,0,.54-.35,1.3,1.3,0,0,0,.35-.54,1.25,1.25,0,0,0,.14-.64l-.06-.44a1.63,1.63,0,0,0-.43-.74l-.34-.26a1.66,1.66,0,0,0-.84-.23Z"/><path class="cls-2" d="M22.16,95.05a1.75,1.75,0,0,0,0-3.5,1.75,1.75,0,0,0,0,3.5Z"/><path class="cls-4" d="M101.38,98c-.82,1.15-1.56,2.59-.71,3.93a2,2,0,0,0,3,.58c1-.84.89-2.26.82-3.42s.23-3.59-.91-4.5a2,2,0,0,0-2.93.89,6,6,0,0,0-.37,4.28,2.48,2.48,0,0,0,2.93,1.63,3,3,0,0,0,1.8-2.55,5.27,5.27,0,0,0-.41-3.71,2.31,2.31,0,0,0-3.17-.59c-1.3.77-1.71,2.42-2,3.8s-.07,3,1.27,3.7c3.09,1.72,4.26-3.74,4.89-5.54.46-1.28,1.15-2.85.39-4.16a2.55,2.55,0,0,0-3.12-1c-2.23.76-4.57,6.55-1.35,7.39,1.69.45,2.41-1.4,2.9-2.62.86-2.08,1.69-4.16,2.53-6.25.33-.8-.73-1.44-1.38-1.06a11.8,11.8,0,0,0-5.72,8,1,1,0,0,0,1.81.76c1.83-2.73,3.58-5.53,5.37-8.3.64-1-.76-1.92-1.57-1.21a36.71,36.71,0,0,0-6.61,7.62l1.84.77a19.54,19.54,0,0,1,6.62-8.51l-1.17-1.52c-1.95,1.52-3.91,3-5.88,4.52l1.35,1.35a22.13,22.13,0,0,1,7.56-6.47c1.13-.59.14-2.27-1-1.7l-7.38,3.67,1,1.71c2.2-1.67,4.38-3.36,6.58-5a1,1,0,0,0-1-1.64c-2.32,1.12-4.64,2.21-7,3.31l1,1.64c2.08-1.35,4.15-2.72,6.22-4.09,1-.63.09-2.16-.91-1.55q-3.63,2.2-7.28,4.38l.88,1.51,5.77-3.87c.94-.64.09-2.14-.9-1.54l-6.06,3.68.9,1.54L106.52,83c.91-.66.08-2.19-.9-1.54l-7.49,5L99,88l7.22-5-.9-1.54c-2.5,1.8-5,3.6-7.5,5.39l1.09,1.4,6.64-5.48-1.28-1.28-6.48,5.46,1.27,1.27,5.83-5.1c.89-.77-.38-2-1.27-1.27l-6,4.68c-.91.71.37,2,1.27,1.27L106,82.25c.8-.61-.27-2-1.08-1.4l-6.59,5.07c-.89.68-.07,2.21.9,1.54q2.55-1.75,5.08-3.53l-.88-1.52-5.25,4c-.89.68,0,2.21.89,1.53l5.24-4c.89-.67.07-2.17-.88-1.52l-5.1,3.51.9,1.54,6.59-5.07L104.72,81l-7.09,5.5,1.27,1.27,6-4.68-1.27-1.27-5.83,5.1c-.88.77.39,2,1.27,1.27l6.49-5.45c.89-.75-.39-2-1.28-1.28L97.67,87c-.77.64.26,2,1.09,1.4L106.25,83c.92-.66,0-2.2-.9-1.54l-7.22,5c-.94.64-.07,2.18.9,1.54l7.49-5-.9-1.54-6.49,4.79c-.9.66-.1,2.15.9,1.54l6.06-3.68-.9-1.54-5.75,3.9c-.93.62-.09,2.1.88,1.51,2.43-1.46,4.86-2.91,7.31-4.34l-.91-1.55q-3.15,2-6.27,4a1,1,0,0,0,1,1.64c2.32-1.1,4.63-2.22,7-3.31l-1-1.64c-2.21,1.66-4.42,3.31-6.62,5a1,1,0,0,0,1,1.71l7.37-3.68-1-1.7a23.35,23.35,0,0,0-8.27,7.18c-.71,1,.75,1.82,1.55,1.19,2-1.52,3.89-3,5.85-4.55,1-.74.06-2.41-1-1.67a21.49,21.49,0,0,0-7.58,9.65c-.43,1.1,1.25,1.68,1.84.77a34.3,34.3,0,0,1,6.28-7.21l-1.57-1.21c-1.79,2.76-3.61,5.51-5.35,8.3l1.81.77a9.6,9.6,0,0,1,4.76-6.88l-1.39-1.07-1.87,4.59c-.3.74-.58,1.48-.9,2.22-.1.24-.24.79-.43.52s0-1,.14-1.35a5,5,0,0,1,.7-1.74c.31-.42,1.08-.93,1.56-.47s.07,1.32-.09,1.8c-.27.8-.56,1.59-.85,2.39-.2.56-1,4-2,3-.75-.78,0-4.23,1.22-4.44s.94,2.35.71,3.07c-.16.52-.52,1.13-1.11.66s-.41-1.57-.3-2.24a2.92,2.92,0,0,1,.3-1.13c.43-.56.41.1.44.48.07.94.12,1.88.17,2.81,0,.37.16,1.59-.32,1.7s-.47-.75-.39-1a4.71,4.71,0,0,1,.74-1.33c.59-.88-.81-1.67-1.41-.82Z"/><path class="cls-4" d="M97.6,97.87a.5.5,0,0,0,0-1,.5.5,0,0,0,0,1Z"/><path class="cls-4" d="M100.5,101.8a7.87,7.87,0,0,1-.59-1.11,7.25,7.25,0,0,0-.58-1.23,1,1,0,0,0-1.77.75,5.63,5.63,0,0,0,2.94,3.23,1,1,0,0,0,1.2-1.56Q99.89,99.75,98,97.64c-.73-.86-2.17.26-1.56,1.2l3.79,5.87,1.56-1.2-3.92-3.79a1,1,0,0,0-1.66,1,8.15,8.15,0,0,0,3.07,4.3c.92.66,2-.81,1.21-1.57l-3.42-3.17a1,1,0,0,0-1.41,1.41l2.93,3.74L100,104l-4-3.14a1,1,0,0,0-1.66,1,5.09,5.09,0,0,0,3.6,3.93,1,1,0,0,0,1.16-.58,1,1,0,0,0-.4-1.23l-3.29-2.4a1,1,0,0,0-1.19,1.55l2.19,2.34L97.87,104l-2.32-2a1,1,0,0,0-1.28-.08,1,1,0,0,0-.25,1.25l1.06,1.41,1.51-1.16-1.28-1.15L94,103.68c.73.62,1.44,1.25,2.16,1.87a1,1,0,0,0,1.24.08.93.93,0,0,0,.24-1.22l-.36-.47-1.48,1.15,1.28,1.08,1.14-1.48-1.56-.9a1,1,0,0,0-1.15,1.49l1.87,1.56,1.33-1.33-2.39-1.91a1,1,0,0,0-1.32,0,1,1,0,0,0,0,1.32l1.92,1.64a.92.92,0,0,0,1.3-1.3c-.55-.47-1.08-1-1.62-1.44-.88-.78-2.15.47-1.3,1.3l1.43,1.39,1.3-1.29-2-1.8a.94.94,0,0,0-1.29,0,.92.92,0,0,0,0,1.29l2.1,1.94,1.1-1.43-2-1.43c-.85-.61-1.83.72-1.1,1.43L96.53,107a.91.91,0,0,0,1.29-1.28L95.35,103a.93.93,0,0,0-1.28,0,.92.92,0,0,0,0,1.28l1.8,2.1a.91.91,0,0,0,1.26,0,.92.92,0,0,0,0-1.26l-1.47-1.81a.88.88,0,0,0-1.15-.07.9.9,0,0,0-.23,1.13,5.82,5.82,0,0,0,4.92,3.26c1.08.06,1.08-1.62,0-1.69a4,4,0,0,1-3.41-2.45l-1.37,1.06,1.45,1.83,1.26-1.26L95.35,103l-1.28,1.28c.81.91,1.64,1.8,2.46,2.69l1.29-1.28L96,103.93l-1.1,1.43,2,1.44c.84.6,1.86-.74,1.1-1.44L96,103.42l-1.29,1.29,2,1.8c.88.78,2.15-.46,1.3-1.29l-1.43-1.4-1.3,1.3,1.62,1.44,1.3-1.3-1.9-1.66L95,104.92l2.38,1.92a1,1,0,0,0,1.33,0,.94.94,0,0,0,0-1.33l-1.86-1.57-1.15,1.48,1.57.9c.9.52,2-.76,1.14-1.48l-1.27-1.09a1,1,0,0,0-1.24-.07.92.92,0,0,0-.25,1.21l.36.47,1.48-1.14-2.15-1.88c-.9-.8-2.24.5-1.34,1.34l1.26,1.17a1,1,0,0,0,1.26.07.93.93,0,0,0,.25-1.23l-1-1.43-1.53,1.18,2.31,2A1,1,0,0,0,97.87,104l-2.19-2.34-1.19,1.54,3.28,2.41.76-1.81a3.14,3.14,0,0,1-2.21-2.54l-1.66,1,4,3.15A1,1,0,0,0,100,104l-2.93-3.74-1.41,1.41,3.42,3.17,1.21-1.56a5.84,5.84,0,0,1-2.16-3.11l-1.66,1,3.92,3.78c.79.76,2.19-.23,1.56-1.2L98.2,97.84l-1.57,1.21,3.67,4.23,1.2-1.55a3.73,3.73,0,0,1-2.07-2l-1.77.75a6.25,6.25,0,0,0,.85,1.07,6.35,6.35,0,0,1,.76,1,.71.71,0,0,0,1.23-.72Z"/><path class="cls-4" d="M94.11,79.92a20.57,20.57,0,0,0-1.69,1.4l-1.56,1.37a.83.83,0,0,0,1,1.3c1.19-.85,2.37-1.72,3.55-2.58l-1-1.29-3.3,3.11a.82.82,0,0,0,1.17,1.16L96,81l-1.13-1.14-1.2,1.33-.58.64a5.84,5.84,0,0,0-.68.81.78.78,0,0,0,.28,1.06.8.8,0,0,0,1.06-.28c.05-.09.1-.19.14-.28a.72.72,0,0,0-.1-.84.71.71,0,0,0-.84-.11l-.26.17.78,1.34a10.22,10.22,0,0,0,1.33-1.38L96,81a.8.8,0,1,0-1.13-1.14l-3.74,3.38,1.17,1.16,3.29-3.11a.82.82,0,0,0-1-1.29c-1.18.86-2.37,1.71-3.55,2.58l1,1.29,1.5-1.37A17.83,17.83,0,0,0,95,81.08a.76.76,0,0,0,.06-1,.74.74,0,0,0-1-.19Z"/></svg>