<svg id="Layer_1" data-name="Layer 1" xmlns="http://www.w3.org/2000/svg" viewBox="0 0 139.01 139.01"><defs><style>.cls-1{fill:#232222;}.cls-2{fill:#fff;}</style></defs><circle class="cls-1" cx="69.51" cy="69.51" r="69.51"/><path class="cls-2" d="M68,87.81a98,98,0,0,0,11.43-5.45Q85,79.44,90.65,76.47l11-5.82c3.79-2,7.75-3.85,11.42-6.09,2.41-1.47.3-4.84-2.18-3.72-3.76,1.7-7.37,3.85-11,5.78L88.65,72.55q-5.5,2.91-11,5.85a101.41,101.41,0,0,0-11,6.36c-1.42,1-.63,3.76,1.29,3Z"/><path class="cls-2" d="M50.61,64.29a3.12,3.12,0,0,0-4.39-2.13c-2,1.11-1.94,3.86-1,5.63a18.37,18.37,0,0,0,2.67,3.35l3.27,3.68q3.18,3.6,6.35,7.19c2.11,2.4,4.17,4.86,6.35,7.2,1.36,1.47,3.91,3,5.45.85s-.48-4.6-1.64-6.26q-2.51-3.57-5.27-7A112.43,112.43,0,0,0,48.9,63c-1.13-1-2.77.67-1.64,1.64A110.75,110.75,0,0,1,64.67,83.5c.61.84,1.22,1.69,1.8,2.55.35.51,1.47,2,1,2.61-.7,1-4.11-3.46-4.6-4L53.41,74c-1.72-1.95-3.47-3.88-5.15-5.86-.74-.87-1.66-2-1.34-3.24.25-1,1.26-.89,1.51,0a1.13,1.13,0,0,0,2.18-.6Z"/><path class="cls-2" d="M46.36,68.08a25.63,25.63,0,0,0-3.47,5.36,20.93,20.93,0,0,0-2.15,6,12.77,12.77,0,0,0,2.72,11,13.1,13.1,0,0,0,9.36,4.19,18.68,18.68,0,0,0,11.25-4,1.83,1.83,0,0,0,.64-2.43,1.78,1.78,0,0,0-2.43-.64c-4.77,3.53-11.73,5.62-16.34.66-2.19-2.35-2.57-5.7-1.9-8.73a19.14,19.14,0,0,1,1.81-4.79c.86-1.64,2-3.16,2.76-4.85.63-1.37-1.08-3-2.25-1.74Z"/><path class="cls-2" d="M46.49,83.43a1.12,1.12,0,0,0,0-2.23,1.12,1.12,0,0,0,0,2.23Z"/><path class="cls-2" d="M49.19,86.79l-.21,0,.26,0h0l.24.1,0,0,.48.61h0a1.05,1.05,0,0,0-.28-.49,1.29,1.29,0,0,0-.48-.28,1.14,1.14,0,0,0-.58,0,1.26,1.26,0,0,0-.49.28h0a.82.82,0,0,0-.23.35.86.86,0,0,0-.09.42l0,.29a1.07,1.07,0,0,0,.28.48h0a1.05,1.05,0,0,0,.49.28,1,1,0,0,0,.58,0,1.07,1.07,0,0,0,.48-.28,1,1,0,0,0,.28-.48v0l-.48.62,0,0-.24.1h0l-.26,0,.21,0a.73.73,0,0,0,.38-.09.87.87,0,0,0,.51-.51.73.73,0,0,0,.09-.38l0-.26a.89.89,0,0,0-.25-.43l-.2-.16a1,1,0,0,0-.49-.13Z"/><path class="cls-2" d="M55.26,90.25a1,1,0,0,0,0-2,1,1,0,0,0,0,2Z"/><path class="cls-2" d="M39.26,92.23l-.1-.06a2.15,2.15,0,0,0-1.11-.3,2.19,2.19,0,0,0-1.12.3l-.1.06a1.82,1.82,0,0,0-.67.62,1.15,1.15,0,0,0-.31.53,1.87,1.87,0,0,0-.21.93l.09.64.24.57a1.85,1.85,0,0,0,.62.68,1.24,1.24,0,0,0,.53.31,1.87,1.87,0,0,0,.93.21l.64-.09.57-.24a1.85,1.85,0,0,0,.68-.62,1.24,1.24,0,0,0,.31-.53,1.76,1.76,0,0,0,.2-.93l-.08-.64-.25-.58a2.44,2.44,0,0,0-.86-.86Z"/><path class="cls-2" d="M53.09,98.93l-.2,0,1.21.93,0,0a2.12,2.12,0,0,0-1.83-1h0A2.05,2.05,0,0,0,50.3,100a1.56,1.56,0,0,0-.18.82l.07.56a2.09,2.09,0,0,0,.55.94l.42.33a2.12,2.12,0,0,0,1.07.29h0a2.12,2.12,0,0,0,1.83-1l0,0-1.21.93.2,0,.48-.2a1.53,1.53,0,0,0,.56-.51,1,1,0,0,0,.25-.44,1.48,1.48,0,0,0,.18-.77l-.07-.53-.21-.48a1.42,1.42,0,0,0-.51-.55,1.45,1.45,0,0,0-.68-.36Z"/><path class="cls-2" d="M43.45,110.57c2.69,0,2.7-4.18,0-4.18s-2.7,4.18,0,4.18Z"/><path class="cls-2" d="M35,116.3l.23,0a2.21,2.21,0,0,0,1.4-.58,1.41,1.41,0,0,0,.41-.64,1.44,1.44,0,0,0,.17-.76l-.07-.53a1.91,1.91,0,0,0-.51-.88l-.4-.31a2,2,0,0,0-1-.27H35a1.37,1.37,0,0,0-.77.17,1.53,1.53,0,0,0-.65.41,1.56,1.56,0,0,0-.41.64,1.49,1.49,0,0,0-.17.78l.07.53a2,2,0,0,0,.51.88L34,116a2.1,2.1,0,0,0,1,.28Z"/><path class="cls-2" d="M53.55,120.47l0-.17v-.12h0a1.52,1.52,0,0,0-.17-.76,1.41,1.41,0,0,0-.41-.64l-.4-.31a2,2,0,0,0-1-.26,2,2,0,0,0-1,.26l-.4.31-.31.4a2.08,2.08,0,0,0-.27,1v.13l0,.17a1.55,1.55,0,0,0,.17.77,1.46,1.46,0,0,0,.42.65,1.5,1.5,0,0,0,.64.41,1.47,1.47,0,0,0,.77.17l.53-.07a2,2,0,0,0,.89-.51l.31-.41a2,2,0,0,0,.27-1Z"/><path class="cls-2" d="M57.29,73a.53.53,0,0,0,0-1,.53.53,0,0,0,0,1Z"/><path class="cls-2" d="M51.21,65.89c2.94-2.63,5.42-5.89,8-8.86l8-9.2c5.28-6.08,10.53-12.16,15.9-18.16,1.82-2-1.25-5.05-3-3-5.22,6.23-10.56,12.37-15.87,18.52l-7.81,9c-2.68,3.1-5.65,6.14-7.92,9.55-1.12,1.7,1.31,3.33,2.7,2.09Z"/><path class="cls-2" d="M81.12,28.24c9.82,11.58,19.81,23,29.75,34.48,1.76,2,4.67-.92,2.94-2.94-9.87-11.54-19.69-23.11-29.68-34.55-1.81-2.08-4.78.94-3,3Z"/><path class="cls-2" d="M57.77,71.76c3.29-2.12,6.2-5,9.2-7.53l8.89-7.51,18-15.17a2.28,2.28,0,0,0,0-3.21,2.31,2.31,0,0,0-3.2,0L73,53.52,64.39,61,59.9,64.83a47.58,47.58,0,0,0-4.4,4c-1.37,1.52.39,4.16,2.27,3Z"/><path class="cls-2" d="M62.67,79.07a39.21,39.21,0,0,0,5.41-3c1.77-1.06,3.54-2.12,5.3-3.2l10.36-6.34q10.47-6.4,20.9-12.86c2.35-1.45.2-5.16-2.17-3.71Q92,56.36,81.55,62.78L71.22,69.16c-1.69,1-3.37,2.1-5,3.15a39.69,39.69,0,0,0-5.36,3.58c-1.36,1.21.08,3.88,1.85,3.18Z"/></svg>