<svg id="Layer_1" data-name="Layer 1" xmlns="http://www.w3.org/2000/svg" viewBox="0 0 137.52 137.52"><defs><style>.cls-1{fill:#f89d79;}.cls-2{fill:#fff;}</style></defs><circle class="cls-1" cx="68.76" cy="68.76" r="68.76"/><path class="cls-2" d="M71.15,58.62c-.16,1.63-.33,3.26-.55,4.88a8.93,8.93,0,0,1-.35,2c.17-.41-.2.1-.4.24a10.86,10.86,0,0,1-1.86,1,46.78,46.78,0,0,1-15.44,3.66c-4.7.3-10.18.54-14.62-1.32a23.9,23.9,0,0,1-8-5.12,9.38,9.38,0,0,1-2.59-6.57,46.82,46.82,0,0,1,.44-8.61,27.23,27.23,0,0,1,.92-4.19c.15-.5.67-2.29,1.11-2.44,1.82-.62,1-3.52-.8-2.89-2.36.8-3.16,4.06-3.66,6.22a46.45,46.45,0,0,0-1,9c-.06,2.79-.07,5.71,1.14,8.28,1.43,3,4.23,5.21,7,6.87a24,24,0,0,0,8.24,3.29,47,47,0,0,0,9.1.57A53.52,53.52,0,0,0,67.61,70a15.34,15.34,0,0,0,4.45-2.22,3.89,3.89,0,0,0,1.3-2.61c.36-2.18.57-4.39.79-6.59.18-1.92-2.82-1.91-3,0Z"/><path class="cls-2" d="M46.56,66.86a57.29,57.29,0,0,0,15.35-1c3.29-.65,7.25-1.39,10.07-3.34,4.32-3,1.38-8.53-2.39-10.37a41.12,41.12,0,0,1-5.24-2.59A32.57,32.57,0,0,1,59,44.81c-1.95-2.05-3.56-4.42-5.56-6.42a17.08,17.08,0,0,0-5.93-3.91c-4.45-1.73-9.35-1-13.65.82a12.34,12.34,0,0,0-7.33,7.26,20.56,20.56,0,0,0-.92,10c1.52,9.66,12.48,13.56,21,14.31a1.48,1.48,0,0,0,1.3-.74h0c.82-1.74-1.76-3.26-2.59-1.52h0l1.29-.74c-6.46-.57-15.45-3.21-17.65-10.2a15.77,15.77,0,0,1-.35-6.87c.45-3.23,1.68-6.15,4.58-7.85a17,17,0,0,1,11.31-2.23c4.64.95,7.27,4.3,10.17,7.73a37.51,37.51,0,0,0,9.45,8.45c1.55.9,3.37,1.31,4.86,2.29s3.17,3.06,1.6,4.65c-.16.16,0,.06-.33.23a7.89,7.89,0,0,1-.81.44,16.06,16.06,0,0,1-1.88.76,45.39,45.39,0,0,1-5.85,1.55,54.29,54.29,0,0,1-15.1,1C44.64,63.71,44.65,66.71,46.56,66.86Z"/><path class="cls-2" d="M35.66,37.84a16,16,0,0,1,9.15-1c5,1.14,7.6,5.24,10.81,8.82a36.51,36.51,0,0,0,8.17,7.12c2.33,1.4,6,1.95,7.11,4.7s-3.45,3.82-5.32,4.35a57.59,57.59,0,0,1-11.66,2,38.66,38.66,0,0,1-12.6-.9c-4-1.07-8.38-2.93-10.88-6.37-2-2.7-2.25-6-1.89-9.25A12.19,12.19,0,0,1,30.75,41a11,11,0,0,1,4.91-3.2c.59-.23.34-1.2-.27-1-3.53,1.35-6.16,3.49-7.24,7.23a17.14,17.14,0,0,0,0,10.27c1.29,3.52,4.25,5.94,7.54,7.53A32.58,32.58,0,0,0,49.57,65a58.58,58.58,0,0,0,13.65-1.5A39.12,39.12,0,0,0,68.35,62a8.42,8.42,0,0,0,2.74-1.38,3.17,3.17,0,0,0,.43-4.12,7.88,7.88,0,0,0-4.31-3.13,24.18,24.18,0,0,1-7.83-5.25A89.15,89.15,0,0,1,53,40.92a15.61,15.61,0,0,0-6.27-4.56C43,35,39,35.53,35.39,36.87,34.79,37.09,35.05,38.06,35.66,37.84Z"/><path class="cls-2" d="M37.21,43.41l.09,0,.11,0c.15,0-.17,0,.05,0a7.13,7.13,0,0,1,1,0,4.45,4.45,0,0,1,2.6.84,1.79,1.79,0,0,1,.54.7c0,.08,0,0,0,0s0,.08,0,.13a2,2,0,0,1,.07.23s0,.07,0,.1c0-.14,0,0,0,0s0,.18,0,.27a1,1,0,0,0,0,.16c0-.08,0,.13,0,.16s-.05.14-.07.22,0-.1,0,0l-.08.14-.1.17c-.06.11,0,0,0,0l-.09.1-.15.15c-.12.11,0,0-.11.08l-.14.08c-.11.07.13,0,0,0l-.4.11-.22,0c-.11,0,.13,0,0,0h-.1l-.55,0a10,10,0,0,1-1.09,0l-.53,0-.44-.06a13.71,13.71,0,0,1-1.81-.46s.13.07,0,0l-.12-.07-.1-.06s.16.14,0,0,.08.17,0,0a.6.6,0,0,0-.06-.11c-.06-.09,0,.16,0,0s0-.13-.05-.19a1.62,1.62,0,0,1,0-.19c0-.1,0,.14,0,0a3.09,3.09,0,0,1,0-.43.37.37,0,0,1,0-.11c0,.09,0,.09,0,0a1.55,1.55,0,0,1,0-.23l.06-.23,0-.12c0-.1-.06.11,0,0a3.72,3.72,0,0,1,.27-.48s.07-.09,0,0,.06-.07.07-.08l.2-.2a1.5,1.5,0,0,1,.39-.28,2.53,2.53,0,0,1,.59-.26.77.77,0,0,0,.52-.92.76.76,0,0,0-.92-.53,4.1,4.1,0,0,0-2.27,1.71A3.71,3.71,0,0,0,34,45.85a2.29,2.29,0,0,0,.8,1.77,4.88,4.88,0,0,0,1.78.64,14.86,14.86,0,0,0,2.66.31,5.55,5.55,0,0,0,2.39-.36,3.08,3.08,0,0,0,1-4.5,5.06,5.06,0,0,0-3.5-1.81,7,7,0,0,0-2.37.06.75.75,0,0,0,.4,1.45Z"/><path class="cls-2" d="M37.56,43.8h.07l.08,0c.1,0-.1,0,.06,0a4.83,4.83,0,0,1,.76,0,3.49,3.49,0,0,1,2,.64,1.42,1.42,0,0,1,.42.55,1.16,1.16,0,0,1,.1.57v.1s0-.07,0,0a1,1,0,0,1,0,.17.59.59,0,0,1-.11.28c0,.05-.05.09-.07.13s0,0,0,0l-.06.07-.12.12c-.07.07,0,0-.09.07l-.11.06c-.07,0,.08,0,0,0l-.31.09-.15,0c-.08,0,.07,0,0,0h-.08c-.13,0-.27,0-.41,0a9.63,9.63,0,0,1-1.56-.11,6.21,6.21,0,0,1-1.35-.34h0l-.06,0-.09-.05a.18.18,0,0,1-.07,0c.07,0,.07.06,0,0s0,.11,0,0,0-.06,0-.08,0,.09,0,0l0-.14c0-.05,0-.1,0-.14s0-.08,0,0,0,0,0,0v-.32s0,0,0-.08,0,0,0,0a1.36,1.36,0,0,1,0-.17.84.84,0,0,1,.05-.17l0-.09c0-.07,0,.07,0,0a2.5,2.5,0,0,1,.21-.35l0,0s0-.06,0-.07l.15-.15a2.31,2.31,0,0,1,.76-.42c.61-.2.35-1.16-.27-1a3,3,0,0,0-1.66,1.25,2.77,2.77,0,0,0-.39,1.59A1.67,1.67,0,0,0,35.81,47a3.49,3.49,0,0,0,1.32.47,10.93,10.93,0,0,0,2,.24,4,4,0,0,0,1.76-.27,2.24,2.24,0,0,0,.76-3.27A3.71,3.71,0,0,0,39,42.79a5.15,5.15,0,0,0-1.75.05C36.67,43,36.93,43.94,37.56,43.8Z"/><path class="cls-1" d="M103.38,54.18c2.17-1.85,9.64-8.08,12.68-9,3.57-1.09,6.92-.38,5.43-3.44a7.82,7.82,0,0,0-4.8-4.3s-1.64-4.81-3.81-5.3c-1.88-.42-2.41,1.75-3.87,5.4S97.66,48,96.68,49.06a.55.55,0,0,0-.11.46"/><path class="cls-2" d="M104.44,55.24c2.07-1.76,4.17-3.48,6.35-5.1,2.4-1.77,4.68-3.44,7.64-4,1.35-.25,3.07-.3,4.12-1.31,1.2-1.14.81-2.74.14-4.05a9.19,9.19,0,0,0-5.6-4.8l1,1a13,13,0,0,0-3-5.29c-2.12-2-4.65-1.14-5.86,1.3-.68,1.38-1,2.93-1.78,4.28a11.16,11.16,0,0,1-2,2.39A64.31,64.31,0,0,1,99.38,45l-2.77,2.15c-.83.66-1.51,1.18-1.54,2.36,0,1.93,3,1.93,3,0,0,.67-.46.61.09.23.2-.14.38-.31.57-.46l2-1.6c1.74-1.35,3.46-2.72,5.09-4.19a21.36,21.36,0,0,0,4-4.41,20.84,20.84,0,0,0,1.34-3.15c.17-.43.74-2.27,1.23-2.36,1-.18,2.25,2.94,2.55,3.67s.47,1.28,1.27,1.64a7.3,7.3,0,0,1,1.08.46,6.59,6.59,0,0,1,2.24,2.12c.16.25.57,1.44.75,1.5-.11,0,.22-.38.23-.37s-.41.18-.43.18c-2.17.49-4.33.68-6.32,1.74-4.18,2.24-7.92,5.54-11.52,8.6-1.47,1.25.66,3.36,2.12,2.12Z"/><path class="cls-1" d="M76.18,84.93a18,18,0,0,1-11.43-1.67c-5.89-3-8.46-8-6.88-12.54,1.42-4.07,4.39-12.09,16.69-15.2,11.45-2.9,16.35-4,19.35-5.34s6.29.15,8,2c.91,1,2.49,2.4,1.39,3.45s-6.86,8.29-10.07,12.65c-2.58,3.52-3.58,6.48-7.06,10.55S80.68,84.31,76.18,84.93Z"/><path class="cls-2" d="M75.78,83.48a17.09,17.09,0,0,1-12.68-3c-3.14-2.3-5-5.83-3.68-9.66A20.23,20.23,0,0,1,71.33,58.12c7.09-2.77,14.93-3.3,22-6.09,1.91-.75,3.51-1.26,5.5-.28a7.67,7.67,0,0,1,2.28,1.8c.29.31.83.74,1,1.18-.07-.23.12-.21-.21.1a32.26,32.26,0,0,0-2.81,3.36q-2,2.49-4,5c-1.43,1.86-2.91,3.71-4.2,5.67s-2.52,4.3-3.94,6.35a28.08,28.08,0,0,1-5.43,6.08,11.72,11.72,0,0,1-5.76,2.16,1.51,1.51,0,0,0-1,1.85,1.54,1.54,0,0,0,1.85,1,14,14,0,0,0,6.07-2.16,26.42,26.42,0,0,0,5.42-5.45,64,64,0,0,0,4.38-6.68,61.44,61.44,0,0,1,4-5.65c2.48-3.25,5-6.55,7.7-9.57,1.82-2,.66-3.85-1-5.56a9.59,9.59,0,0,0-6.46-3.16c-2-.09-3.44.78-5,1.34-1.39.48-2.83.88-4.26,1.26-5,1.33-10.1,2.29-15,3.84a24.21,24.21,0,0,0-11.21,7,25.12,25.12,0,0,0-4.45,7.93c-1.72,4.73-.15,9.41,3.68,12.63,4.63,3.9,10.32,5,16.19,4.21a1.51,1.51,0,0,0,1-1.84A1.54,1.54,0,0,0,75.78,83.48Z"/><path class="cls-2" d="M68.48,63.84a.75.75,0,0,0,0-1.5.75.75,0,0,0,0,1.5Z"/><path class="cls-2" d="M75.75,62.07a.75.75,0,0,0,0-1.49.75.75,0,0,0,0,1.49Z"/><path class="cls-2" d="M72.18,64a.75.75,0,0,0,0-1.49.75.75,0,0,0,0,1.49Z"/><path class="cls-2" d="M68.55,67.19a.75.75,0,0,0,0-1.49.75.75,0,0,0,0,1.49Z"/><path class="cls-2" d="M70.62,60.31a.75.75,0,0,0,0-1.49.75.75,0,0,0,0,1.49Z"/><path class="cls-1" d="M45.84,78.7c1.7,2.37,1.88,5.14.41,6.19"/><path class="cls-2" d="M44.54,79.46c.19.27.37.54.53.82l.21.42s.12.17.11.23-.11-.28,0-.08a6.18,6.18,0,0,1,.27.83c0,.15.07.29.1.45a1.22,1.22,0,0,0,0,.17c0-.11,0-.34,0-.09a6.09,6.09,0,0,1,0,.74c0,.06,0,.26,0,0s0,0,0,0,0,.22-.08.33a.69.69,0,0,1,0,.13c-.05.17.17-.34.06-.13s-.1.18-.16.27-.14.19,0,0,0,0,0,0-.41.34,0,0a1.61,1.61,0,0,0-.69.89,1.5,1.5,0,0,0,2.2,1.7,4.13,4.13,0,0,0,1.44-1.86,4.8,4.8,0,0,0,.29-2A8.54,8.54,0,0,0,47.14,78a1.54,1.54,0,0,0-2.06-.54,1.52,1.52,0,0,0-.54,2Z"/><path class="cls-1" d="M35.53,101.37a65.3,65.3,0,0,0,18.59,2.48,21.65,21.65,0,0,0,7.65,2.2c8.08.71,8.72-.34,8.72-.34a2.09,2.09,0,0,0-1.81-1.21c-1.38-.12,0-.69-1.86-1.08a1.37,1.37,0,0,1-.95-.54c8.34-1.37,16.28-4.17,22.6-8.39s19.84,5.67,27,5.84c3.79.09,3.51-.94,1.78-2.48-8.93-.3-18.11-5.15-12.9-3.21a40,40,0,0,0,11.26,1.87c-1.67-1.28-3.74-2.74-5.23-4.16-5.85-.29-14.91-2.39-10.53-1.76,2.9.42,6.79.61,9.53.7a3.81,3.81,0,0,1-1-2,23.06,23.06,0,0,1,.47-3.25,53,53,0,0,1-10.63,1.9c2.61-.26,7.93-2.09,10.84-3.14a30.59,30.59,0,0,0,.55-8.17c-4.9,6.9-13.75,10-16.84,10.84a5.38,5.38,0,0,1-1.11.29s.41-.09,1.11-.29c1.37-.49,4.1-1.78,8.63-5.24a47.22,47.22,0,0,0,7.78-7.35c-.61-1.48-1.83-2.21-4-1.45-4,1.35-9.48,12.2-14.51,12.26-3.3,0-4.57-1.67-13.75-5.82-1.82-.82-3.64-1.51-5.44-2.12.76-.17,1-.4.7-.45-.49-.08-2.12-1.32-2.76-1.21s-1.32-1.14-2.44-1S64.7,73.57,63,73.64s-2.19-1.22-4.74-1.12-1.4-1-3.33-.68-.18-1.1-4,.16a16.2,16.2,0,0,0-5.36,3.11,44.32,44.32,0,0,0-9.27,2.11C25.53,81.06,23,85.57,21.42,88,17.81,93.84,20.8,97,35.53,101.37Z"/><path class="cls-2" d="M35.13,102.82a64.6,64.6,0,0,0,12.64,2.28c1.09.09,2.18.16,3.28.2a11.89,11.89,0,0,1,3,.17,42.46,42.46,0,0,0,5.53,1.79,32.27,32.27,0,0,0,9.51.39c.93-.11,2.16-.29,2.69-1.18.78-1.33-.76-2.75-1.86-3.19a2.74,2.74,0,0,0-.48-.17c-.51-.13-.92-.34-.42.22.7.78.16-.14,0-.39a2.28,2.28,0,0,0-.91-.68c-.36-.18-.9-.15-1.14-.44l-.66,2.51A62.93,62.93,0,0,0,85.4,98.07c2-1,3.92-2.87,6.21-3.1a15.82,15.82,0,0,1,6.24,1c4.6,1.46,8.89,3.76,13.52,5.13a13.24,13.24,0,0,0,6.54.56c2.22-.53,2.47-2.6,1.09-4.17a2.87,2.87,0,0,0-1.77-1.14c-.83-.14-1.71-.1-2.55-.2a39.29,39.29,0,0,1-5.16-1c-1.36-.37-2.71-.79-4-1.29-.41-.16-.82-.32-1.22-.5-.59-.28-.63-.61-.16.13l.15,1.16v0l-1,1c-.4.14-.82-.1-.27.11l1,.34a27.71,27.71,0,0,0,4,1.08,53,53,0,0,0,7.64.84c1.64.08,1.83-2,.76-2.79-1.67-1.27-3.25-2.7-4.93-3.93a5,5,0,0,0-2.69-.56c-.85-.08-1.69-.17-2.53-.29-1.56-.21-3.12-.48-4.67-.79-.54-.1-1.08-.21-1.61-.34-.31-.08-.89-.38-.48-.1l.69.9v0l-.69,1.7c-1,.53-.73.07-.34.21a4.6,4.6,0,0,0,.71.09c1.06.14,2.12.26,3.18.35,2.12.18,4.25.28,6.38.35a1.52,1.52,0,0,0,1.07-2.56c-.92-1.17-.4-2.42-.15-3.79a1.52,1.52,0,0,0-1.85-1.84,48.69,48.69,0,0,1-7.1,1.5c-.86.13-1.73.23-2.6.33a7.58,7.58,0,0,0-.82.08c-.32,0-.62-.11,0,.07v2.9c.06,0-.4,0,0,0s.9-.1,1.34-.17a28.42,28.42,0,0,0,3.28-.78c2.35-.66,4.66-1.46,7-2.29a1.5,1.5,0,0,0,1-1,31.58,31.58,0,0,0,.6-8.56,1.51,1.51,0,0,0-2.79-.75A25.72,25.72,0,0,1,99,83.38a36,36,0,0,1-4.23,1.84q-.84.3-1.68.57l-.63.19-.7.22c-.1,0-.68.12-.15.06l.4,2.95c3-.69,5.64-2.48,8.09-4.21a52.06,52.06,0,0,0,10.09-9.06,1.58,1.58,0,0,0,.24-1.81c-1.55-3.41-5.52-2.81-8-.81s-4.21,4.55-6.28,6.82c-1.55,1.72-3.52,4.09-6,4a6.44,6.44,0,0,1-2.07-.49c-.77-.3-1.91-.91-2.8-1.37a97.58,97.58,0,0,0-13.45-6v2.9c.74-.21,1.71-.56,1.85-1.45a1.56,1.56,0,0,0-.69-1.7c-.49-.22-.94-.46-1.55-.79a10,10,0,0,0-2.07-.67c.44.14-.05-.12-.18-.23a3.77,3.77,0,0,0-1-.57c-.66-.24-1.23-.1-1.84-.46a9.06,9.06,0,0,0-2-1c-.71-.21-1.46-.08-2.16-.34-.52-.19-1-.48-1.55-.66A13,13,0,0,0,57.85,71c-.77-.08-.27,0-1-.42a2.83,2.83,0,0,0-1.64-.31,6.82,6.82,0,0,0-.86.12c0-.11.47.23.47.23a2.23,2.23,0,0,0-1-.58c-1.42-.37-3.18.41-4.46,1a19,19,0,0,0-4.83,3l1.06-.43c-8.54,1.11-18.43,4.15-23.89,11.31a14.72,14.72,0,0,0-3.06,5.84A6.35,6.35,0,0,0,21.37,97c3.88,3,9.13,4.42,13.76,5.8,1.85.55,2.65-2.35.8-2.9a60.28,60.28,0,0,1-10.12-3.68c-1.57-.79-3.48-1.82-4.14-3.42a3.49,3.49,0,0,1-.11-1.34,6.65,6.65,0,0,1,.89-2.23,20.44,20.44,0,0,1,2.63-3.7c4.45-4.8,11.41-7.29,17.68-8.49,1-.19,2.06-.25,3.05-.48a6.39,6.39,0,0,0,2-1.27A15.56,15.56,0,0,1,50.11,74c.9-.42,1.94-.53,2.81-.94.39-.18,0,0-.19-.25a2.21,2.21,0,0,0,1.07.58,3.14,3.14,0,0,0,1.61-.06c.12,0,0-.13-.15-.18.22.08.42.35.63.47,1.36.77,3,.24,4.41.84a7.8,7.8,0,0,0,2,.68,4.87,4.87,0,0,1,2.16.6,5.12,5.12,0,0,0,2.08.88,3.73,3.73,0,0,1,1.65.71c.6.33,1.11.24,1.64.5.33.16.64.37,1,.55l.3.16c.07,0,.75.31.41.16L70.79,77l0,.08.69-.9a.36.36,0,0,1-.43.17,1.52,1.52,0,0,0,0,2.9,86.7,86.7,0,0,1,11.91,5.29A22.87,22.87,0,0,0,88.65,87c5.73,1.15,9.51-4.57,12.78-8.33,1.11-1.28,5-6.17,6.44-3l.23-1.82a49.3,49.3,0,0,1-9.48,8.59c-2.3,1.63-4.75,3.29-7.37,3.9-1.61.38-1.31,3.15.39,3a17.74,17.74,0,0,0,3.84-1.1A43.64,43.64,0,0,0,100.54,86a28.8,28.8,0,0,0,10.35-8.58l-2.8-.76a28.18,28.18,0,0,1-.49,7.77l1.05-1.05c-2.3.83-4.61,1.62-7,2.29a28.11,28.11,0,0,1-3.14.75,12,12,0,0,0-1.48.19,1.52,1.52,0,0,0,0,2.9,4,4,0,0,0,1.47,0c1-.1,2-.23,3-.37a50.47,50.47,0,0,0,7.71-1.59l-1.85-1.85a19.74,19.74,0,0,0-.52,3.49,5.32,5.32,0,0,0,1.44,3.22l1.06-2.56c-2.4-.08-4.81-.19-7.2-.42-1.18-.12-3.1-.79-4.24-.17a1.5,1.5,0,0,0-.69,1.69c.46,1.55,3.34,1.64,4.6,1.87a70,70,0,0,0,8.53,1.09l-1.06-.44c1.72,1.61,3.66,3,5.53,4.4l.76-2.8a39.33,39.33,0,0,1-9.77-1.45,11.67,11.67,0,0,0-2.88-.87,1.53,1.53,0,0,0-1.29,2.45,4.2,4.2,0,0,0,1.78,1.06,34.8,34.8,0,0,0,3.41,1.25,40.34,40.34,0,0,0,10.39,1.9l-1.06-.44c.19.17.48.59.71.7,0,0,.1.16.11.16-.23,0,.23-.88.22-.91-.17-.4.38,0,0-.12a1.52,1.52,0,0,0-.42.06,9.15,9.15,0,0,1-1.57,0,15.28,15.28,0,0,1-4-.91c-3.38-1.11-6.6-2.64-9.92-3.89-3-1.14-6.33-2.29-9.59-2.06a8.61,8.61,0,0,0-4.18,1.34,50.85,50.85,0,0,1-6.08,3.38,62.81,62.81,0,0,1-16,4.76c-1.23.2-1.3,1.73-.67,2.5a2.64,2.64,0,0,0,1.61.93c.54.23.55.09,0-.41l0,.1c0,.19.36.69.46.8a2.86,2.86,0,0,0,1.55.62c.46.12.7.54.53.13l.15-1.16a1.44,1.44,0,0,1,.43-.45c-.23.21.37-.08,0,0a6.28,6.28,0,0,1-1.44.24,29.15,29.15,0,0,1-9.54-.76c-1.65-.45-3.34-1.58-5-1.63-2-.06-4.07-.09-6.1-.27a59.54,59.54,0,0,1-11.61-2.16C34.07,99.38,33.28,102.28,35.13,102.82Z"/><path class="cls-1" d="M111.83,93.62c1.23,1,2.59,2,3.76,2.89a40,40,0,0,1-11.26-1.87c-5.21-1.94,4,2.91,12.9,3.21,1.73,1.54,2,2.57-1.78,2.48-7.14-.17-20.62-10.09-27-5.84s-14.26,7-22.6,8.39a1.37,1.37,0,0,0,.95.54c1.82.39.48,1,1.86,1.08a2.09,2.09,0,0,1,1.81,1.21s-.64,1.05-8.72.34a21.65,21.65,0,0,1-7.65-2.2,65.3,65.3,0,0,1-18.59-2.48C20.8,97,17.81,93.84,21.42,88A21.37,21.37,0,0,1,24,84.55"/><path class="cls-2" d="M110.77,94.69c1.33,1.07,2.7,2.08,4.06,3.12l.76-2.8a39.33,39.33,0,0,1-9.77-1.45,11.67,11.67,0,0,0-2.88-.87,1.53,1.53,0,0,0-1.29,2.45,4.2,4.2,0,0,0,1.78,1.06,34.8,34.8,0,0,0,3.41,1.25,40.34,40.34,0,0,0,10.39,1.9l-1.06-.44c.19.17.48.59.71.7,0,0,.1.16.11.16-.23,0,.23-.88.22-.91-.17-.4.38,0,0-.12a1.52,1.52,0,0,0-.42.06,9.15,9.15,0,0,1-1.57,0,15.28,15.28,0,0,1-4-.91c-3.38-1.11-6.6-2.64-9.92-3.89-3-1.14-6.33-2.29-9.59-2.06a8.61,8.61,0,0,0-4.18,1.34,50.85,50.85,0,0,1-6.08,3.38,62.81,62.81,0,0,1-16,4.76c-1.23.2-1.3,1.73-.67,2.5a2.64,2.64,0,0,0,1.61.93c.54.23.55.09,0-.41l0,.1c0,.19.36.69.46.8a2.86,2.86,0,0,0,1.55.62c.46.12.7.54.53.13l.15-1.16s.63-.69.33-.39c.18-.18.34-.08,0,0s-.37.1-.56.13a4.2,4.2,0,0,1-.56.07c-.33,0-.66,0-1,0-1.13,0-2.27,0-3.4-.06A23.92,23.92,0,0,1,55.75,103a6.56,6.56,0,0,0-1.63-.61,20.8,20.8,0,0,0-2.37,0c-1.56,0-3.12-.13-4.67-.28a68.92,68.92,0,0,1-17.27-4.11c-2.58-.94-6.54-2.27-7.93-4.7a2.79,2.79,0,0,1-.11-2.55A15.94,15.94,0,0,1,25,85.61c1.28-1.44-.83-3.57-2.12-2.12-2.39,2.67-5.57,6.91-3.89,10.7s7,5.6,10.71,6.89a71.69,71.69,0,0,0,22.5,4.25,5.45,5.45,0,0,1,2.36.37,24.51,24.51,0,0,0,2.47.93,25.35,25.35,0,0,0,5.67,1,27.14,27.14,0,0,0,7.09-.08c1.11-.22,2.46-.84,2.11-2.24a3.44,3.44,0,0,0-2.49-2.2,1.81,1.81,0,0,0-.56-.08c-.64.08.53,1,.44.53a1.86,1.86,0,0,0-.52-.83c-.5-.49-1.51-.47-1.87-.91l-.66,2.51A62.93,62.93,0,0,0,85.4,98.07c2-1,3.92-2.87,6.21-3.1a15.82,15.82,0,0,1,6.24,1c4.6,1.46,8.89,3.76,13.52,5.13a13.24,13.24,0,0,0,6.54.56c2.22-.53,2.47-2.6,1.09-4.17a2.87,2.87,0,0,0-1.77-1.14c-.83-.14-1.71-.1-2.55-.2a39.29,39.29,0,0,1-5.16-1c-1.36-.37-2.71-.79-4-1.29-.41-.16-.82-.32-1.22-.5-.59-.28-.63-.61-.16.13l.15,1.16v0l-1,1c-.4.14-.82-.1-.27.11l1,.34a27.71,27.71,0,0,0,4,1.08,53,53,0,0,0,7.64.84c1.64.08,1.83-2,.76-2.79s-2.33-1.74-3.46-2.66c-1.49-1.2-3.63.91-2.12,2.13Z"/><path class="cls-1" d="M47.85,92.77c1.69,2.37,1.88,5.13.41,6.18"/><path class="cls-2" d="M47.2,93.14a7.59,7.59,0,0,1,.88,1.57,6.18,6.18,0,0,1,.27.83c0,.15.07.3.1.45s0,.15,0,.28a3.66,3.66,0,0,1,0,.74s0,.16,0,.1,0,.11,0,.12a2,2,0,0,1-.08.33.69.69,0,0,1,0,.13c0,.08,0-.07,0,0a1.73,1.73,0,0,1-.15.27s-.09.13,0,.07-.06.06-.07.08l-.1.09s-.18.14-.06.06a.77.77,0,0,0-.27,1,.76.76,0,0,0,1,.27c2.34-1.74,1.25-5.23-.14-7.21a.77.77,0,0,0-1-.27.75.75,0,0,0-.27,1Z"/><path class="cls-1" d="M56.24,87c1.7,2.37,1.88,5.13.41,6.18"/><path class="cls-2" d="M55.59,87.37A7.92,7.92,0,0,1,56.48,89a7.13,7.13,0,0,1,.26.82c0,.15.07.3.1.45s0,.16,0,.28a4.57,4.57,0,0,1,0,.74s0,.16,0,.1,0,.11,0,.13-.05.21-.09.32,0,.09,0,.14,0-.08,0,0a1.17,1.17,0,0,1-.15.27s-.09.13,0,.07-.06.06-.07.08l-.1.09s-.18.15-.06.06a.77.77,0,0,0-.27,1,.76.76,0,0,0,1,.27c2.35-1.73,1.25-5.23-.14-7.21a.77.77,0,0,0-1-.27.75.75,0,0,0-.27,1Z"/><path class="cls-1" d="M59.89,78.29c1.7,2.37,1.88,5.13.42,6.18"/><path class="cls-2" d="M59.25,78.66a8.08,8.08,0,0,1,.88,1.57,6.18,6.18,0,0,1,.27.83,3.58,3.58,0,0,1,.09.45,1.45,1.45,0,0,1,0,.28,4.57,4.57,0,0,1,0,.74s0,.16,0,.1,0,.11,0,.12,0,.22-.08.33,0,.09-.05.13,0-.07,0,.05l-.15.27-.05.07-.07.07-.09.1s-.18.14-.06.06a.75.75,0,1,0,.76,1.29c2.34-1.74,1.25-5.23-.15-7.21a.76.76,0,0,0-1-.27.74.74,0,0,0-.27,1Z"/><path class="cls-1" d="M66.24,89.23c1.69,2.37,1.88,5.14.41,6.19"/><path class="cls-2" d="M65.59,89.61a7.34,7.34,0,0,1,.88,1.57,6.18,6.18,0,0,1,.27.83c0,.15.07.3.1.45s0,.15,0,.28a3.65,3.65,0,0,1,0,.74s0,.16,0,.09,0,.11,0,.13a1.67,1.67,0,0,1-.08.32.58.58,0,0,1-.05.14c0,.08,0-.07,0,0s-.1.18-.15.27-.09.12,0,.06-.06.07-.07.08l-.1.1-.06,0a.78.78,0,0,0-.27,1,.76.76,0,0,0,1,.27c2.34-1.74,1.25-5.24-.14-7.22a.78.78,0,0,0-1-.27.77.77,0,0,0-.27,1Z"/><path class="cls-1" d="M72.27,81.67c1.69,2.37,1.88,5.13.41,6.19"/><path class="cls-2" d="M71.62,82.05a7.34,7.34,0,0,1,.88,1.57,5.62,5.62,0,0,1,.27.82c0,.15.07.3.1.45s0,.16,0,.28a3.67,3.67,0,0,1,0,.74s0,.16,0,.1,0,.11,0,.13a1.87,1.87,0,0,1-.08.32.78.78,0,0,1-.05.14c0,.07,0-.08,0,0a2.49,2.49,0,0,1-.15.28s-.09.12,0,.06-.06.06-.07.08l-.1.09s-.18.15-.06.06a.77.77,0,0,0-.27,1,.75.75,0,0,0,1,.27c2.34-1.73,1.25-5.23-.14-7.21a.77.77,0,0,0-1-.27.76.76,0,0,0-.27,1Z"/><path class="cls-1" d="M78.56,87.59c1.69,2.37,1.88,5.14.41,6.19"/><path class="cls-2" d="M77.91,88a7.34,7.34,0,0,1,.88,1.57,6.18,6.18,0,0,1,.27.83c0,.14.07.29.1.44s0,.16,0,.28a3.76,3.76,0,0,1,0,.75s0,.16,0,.09a1.11,1.11,0,0,0,0,.13,3,3,0,0,1-.09.32.78.78,0,0,1,0,.14c0,.08,0-.07,0,0a1.82,1.82,0,0,1-.15.27s-.09.12,0,.06-.06.07-.07.08l-.1.1-.06,0a.78.78,0,0,0-.27,1,.76.76,0,0,0,1,.27c2.34-1.74,1.25-5.24-.14-7.22a.78.78,0,0,0-1-.27.76.76,0,0,0-.27,1Z"/><path class="cls-1" d="M35.36,78.12c7.34,10.26,9.52,21.26,4.86,24.6"/><path class="cls-2" d="M34.71,78.5a39.91,39.91,0,0,1,6.71,14c.67,2.93,1.2,7.43-1.58,9.52-.76.57,0,1.87.76,1.29,3-2.28,3.11-6.46,2.53-9.89-1-5.7-3.82-11.07-7.12-15.73-.56-.78-1.86,0-1.3.76Z"/></svg>