<svg id="Layer_1" data-name="Layer 1" xmlns="http://www.w3.org/2000/svg" viewBox="0 0 137.52 137.52"><defs><style>.cls-1{fill:#232222;}.cls-2{fill:#fff;}.cls-3{fill:#231f20;}</style></defs><circle class="cls-1" cx="68.76" cy="68.76" r="68.76"/><path class="cls-2" d="M55.06,18.7h11a1.5,1.5,0,0,0,0-3h-11a1.5,1.5,0,0,0,0,3Z"/><path class="cls-2" d="M76.49,84.88c0-4.47.08-8.94-.28-13.39A80.81,80.81,0,0,0,73.26,55.7a150.05,150.05,0,0,1-4.39-18.22A96.93,96.93,0,0,1,67.68,26c0-.63,0-1.26,0-1.89a5.59,5.59,0,0,1,.61-2.37c.66-1.68-.17-3.34-.75-4.9l-1.45,1.9h.34a1.52,1.52,0,0,0,1.5-1.5c0-1.86.28-4.19-1.91-5C64.4,11.66,62.2,12,60.56,12s-3.84-.36-5.43.21c-2.18.77-1.91,3.11-1.91,5a1.52,1.52,0,0,0,1.5,1.5h.34l-1.45-1.9c-.27.72-.59,1.43-.8,2.17a4.61,4.61,0,0,0-.07,2.39c.15.56.55,1,.67,1.55.39,1.71,0,4-.12,5.73a110.69,110.69,0,0,1-4.24,23.11c-2.26,7.64-4,15.18-4.34,23.17-.26,6.73-.08,13.49-.08,20.22,0,5.06-.07,10.12,0,15.18,0,3.9,2.5,7,6.57,7,3.72.07,7.46,0,11.18,0h6.11a9.5,9.5,0,0,0,4.68-.77c3-1.63,3.32-5,3.32-8V84.88a1.5,1.5,0,0,0-3,0v19.58c0,1.88,0,3.77,0,5.65,0,.21,0,.41,0,.62,0,.42,0,0-.08.58a5.47,5.47,0,0,1-.28,1c-.65,1.59-2,2-3.63,2H52.23c-1.28,0-2.68.08-3.61-1a4.44,4.44,0,0,1-.94-2.16,1.89,1.89,0,0,1,0-.54v-.24c-.1-4.38,0-8.78,0-13.16,0-6.55-.09-13.1,0-19.64a79.66,79.66,0,0,1,3-20.7c1.24-4.43,2.6-8.78,3.53-13.29q1.13-5.46,1.74-11c.26-2.3.47-4.61.55-6.92a22,22,0,0,0,0-2.93c-.12-1.1-1-2.06-.68-3.14.21-.7.52-1.38.77-2.07a1.51,1.51,0,0,0-1.44-1.9h-.34l1.5,1.5c0-.61,0-1.21,0-1.82,0-.24-.08-.37,0-.44-.15.1,0,.09.16.08a36.08,36.08,0,0,1,4.16,0,36.08,36.08,0,0,1,4.16,0c.13,0,.31,0,.16-.08.11.08,0,.19,0,.44V17.2l1.5-1.5h-.34a1.51,1.51,0,0,0-1.44,1.9c.42,1.12,1.15,2.3.61,3.44a9.55,9.55,0,0,0-.57,4.44,96.24,96.24,0,0,0,1,10.71,113.6,113.6,0,0,0,3.8,17.3,86,86,0,0,1,3.59,16.32,143,143,0,0,1,.44,15.07A1.5,1.5,0,0,0,76.49,84.88Z"/><line class="cls-2" x1="46.12" y1="79.42" x2="74.99" y2="79.42"/><path class="cls-2" d="M46.12,80.17H75a.75.75,0,0,0,0-1.5H46.12a.75.75,0,0,0,0,1.5Z"/><line class="cls-2" x1="46.12" y1="104.15" x2="74.99" y2="104.15"/><path class="cls-2" d="M46.12,104.9H75a.75.75,0,0,0,0-1.5H46.12a.75.75,0,0,0,0,1.5Z"/><path class="cls-3" d="M98.77,71.58v.14c0,14.43-7.46,26.13-16.66,26.13S65.45,86.15,65.45,71.72v-.2"/><path class="cls-2" d="M97.27,71.58A35.33,35.33,0,0,1,94.5,85.86c-1.54,3.51-3.84,7-7.19,9a9.83,9.83,0,0,1-9.32.58c-3.46-1.63-5.91-4.82-7.61-8.15A34.57,34.57,0,0,1,67,71.52a1.5,1.5,0,0,0-3,0c0,9.33,3,21.2,11.8,26.11a12.81,12.81,0,0,0,11.5.6c4-1.73,6.94-5.25,8.94-9a37.49,37.49,0,0,0,4.08-17.65,1.5,1.5,0,0,0-3,0Z"/><line class="cls-2" x1="65.53" y1="71.52" x2="98.77" y2="71.58"/><path class="cls-2" d="M65.53,73l29.12,0h4.12a1.5,1.5,0,0,0,0-3L69.65,70H65.53a1.5,1.5,0,0,0,0,3Z"/><polyline class="cls-3" points="82.89 97.81 82.89 121.69 81.33 121.69 81.33 97.81"/><path class="cls-2" d="M81.39,97.81V121.7l1.5-1.5H81.33l1.5,1.5V97.81a1.5,1.5,0,0,0-3,0V121.7a1.52,1.52,0,0,0,1.5,1.5h1.56a1.52,1.52,0,0,0,1.5-1.5V97.81a1.5,1.5,0,0,0-3,0Z"/><path class="cls-2" d="M74.15,123.2H90.07a1.5,1.5,0,0,0,0-3H74.15a1.5,1.5,0,0,0,0,3Z"/><line class="cls-3" x1="66.64" y1="81.47" x2="97.57" y2="81.47"/><path class="cls-2" d="M66.64,82.22H97.57a.75.75,0,0,0,0-1.5H66.64a.75.75,0,0,0,0,1.5Z"/></svg>