<svg id="Layer_1" data-name="Layer 1" xmlns="http://www.w3.org/2000/svg" viewBox="0 0 139.13 139.13"><defs><style>.cls-1{fill:#e8e544;}.cls-2{fill:#fff;}</style></defs><circle class="cls-1" cx="69.56" cy="69.56" r="69.56"/><path class="cls-2" d="M80.42,106.54c3-7.14,5.46-15,4.49-22.85-.84-6.78-3.88-13.44-9.5-17.56-4.91-3.59-12.23-4.58-17.58-1.34-1.28.77-3.09,1.94-3.11,3.58a18.3,18.3,0,0,0,.78,5.08,22.93,22.93,0,0,0,5,9.14A20.43,20.43,0,0,0,82.08,88.3c2.26-.8,1.28-4.42-1-3.62a16.64,16.64,0,0,1-15.52-2.49,18.41,18.41,0,0,1-7.1-14l-.55,1.33c4.65-4.73,12.51-3.13,16.91,1.09,5.43,5.21,7,13.16,6.28,20.4a63.62,63.62,0,0,1-3.49,14.37c-.55,1.62,2.12,2.79,2.81,1.18Z"/><path class="cls-2" d="M84.52,86.6a43.2,43.2,0,0,1,2.15-6.16,23.06,23.06,0,0,1,3.57-5.32c2.86-3.18,7.14-6.37,11.61-6.27a6.52,6.52,0,0,1,5,2.44,6.28,6.28,0,0,1,.11,6.59c-2,3.71-6.1,6.11-10.06,7.2a20.43,20.43,0,0,1-7,.64,18.83,18.83,0,0,1-3.57-.64A31.63,31.63,0,0,0,82.68,84c-1.46-.22-3,1.53-1.6,2.75,2,1.84,5.22,2.39,7.87,2.71A23.79,23.79,0,0,0,97.06,89c5.1-1.17,10.26-4.32,12.94-8.91a10.52,10.52,0,0,0,1.11-8.44,9.37,9.37,0,0,0-5.89-5.81C99.78,63.9,93.87,67,89.89,70.61c-4.22,3.83-7.87,9.8-8.11,15.62-.07,1.62,2.27,1.83,2.74.37Z"/><path class="cls-2" d="M89.86,67.47a51.6,51.6,0,0,1-6.45-.64,20,20,0,0,1-6.11-2.56,21.44,21.44,0,0,1-8-9.49c-.77-1.77-1.73-4.23-1.19-6.18s2.7-2.3,4.38-2.26c3.82.1,7.26,2.94,9,6.17,2.47,4.51,1.88,9.57.44,14.27-.73,2.35,2.69,3.13,3.58,1,4-9.62-.55-23.56-12-24.91a9,9,0,0,0-7,1.89c-2.23,2-2.29,5-1.67,7.72a24.56,24.56,0,0,0,8.08,13.06A23.94,23.94,0,0,0,81.07,70c2.86.87,6.31,1.47,9.2.51a1.54,1.54,0,0,0-.41-3Z"/><path class="cls-2" d="M85.86,67.83a32.72,32.72,0,0,1,3.79-11.9c1.69-3,4.29-6.61,8-7,3-.36,6.16,1.56,6.2,4.8.06,3.63-2.57,7.07-5.16,9.37a19.43,19.43,0,0,1-10.76,4.5A2,2,0,0,0,86,69.44a1.92,1.92,0,0,0,1.9,1.89,20.42,20.42,0,0,0,12.64-4.79c3.62-2.9,6.75-7.37,7-12.12.29-4.91-3.4-8.59-8.11-9.13S90.85,48,88.26,51.58a30.33,30.33,0,0,0-5.52,16.25,1.56,1.56,0,0,0,3.12,0Z"/><path class="cls-2" d="M93.07,45.24c-1.48-.06-2.95.1-4.43,0a19,19,0,0,1-4.41-.93,18,18,0,0,1-7.58-4.63c-1.37-1.5-2.9-4.33-.74-5.85s4.57-.08,6,1.58c2.35,2.67,2.79,6.53,3.26,9.91a1.83,1.83,0,0,0,2.24,1.27,1.85,1.85,0,0,0,1.26-2.23c-.58-4-1.36-8.05-4-11.24-2.28-2.72-6-4.29-9.42-2.89-3.73,1.52-4.76,5.53-3.14,9s5.13,5.9,8.5,7.41a23.6,23.6,0,0,0,6.3,1.89,15.3,15.3,0,0,0,6.6-.14,1.61,1.61,0,0,0-.43-3.15Z"/><path class="cls-2" d="M89.15,45.9a16.07,16.07,0,0,1,2-6.69,10.72,10.72,0,0,1,4.63-4.42,6.56,6.56,0,0,1,.63-.21l.48-.12s.34-.07.1,0a3.88,3.88,0,0,1,.76,0c.13,0,.26,0,.38,0-.3-.05.25.08.25.08a1.72,1.72,0,0,1,.8.54,1.52,1.52,0,0,1,.29.45c-.09-.19,0,.09,0,.12a3.53,3.53,0,0,1,.14.56c0-.24,0,.08,0,.11s0,.26,0,.4a2,2,0,0,1-.07.63,7.17,7.17,0,0,1-.48,1.52,12.53,12.53,0,0,1-2,2.86A16.66,16.66,0,0,1,90.69,46a1.87,1.87,0,0,0-1.27,2.22,1.83,1.83,0,0,0,2.22,1.26,16.6,16.6,0,0,0,7.91-5c2-2.24,4-5.28,3.69-8.44a5.66,5.66,0,0,0-2.37-4.28,6,6,0,0,0-4.5-.82c-3,.5-5.49,2.71-7.25,5.08a14.88,14.88,0,0,0-2.31,4.52,14.37,14.37,0,0,0-.66,5.32,1.5,1.5,0,0,0,3,0Z"/><path class="cls-2" d="M83,32.52a11.32,11.32,0,0,1,.16-4.34,11.62,11.62,0,0,1,1.89-3.89,23.69,23.69,0,0,1,6.77-5.91L89.6,17.8c.41.62,1,1.12,1.41,1.71a14.25,14.25,0,0,1,1.2,1.88,15.33,15.33,0,0,1,1.45,4,14.12,14.12,0,0,1,.28,4.05,26,26,0,0,1-1,4.1,1.66,1.66,0,0,0,3,1.28,11.49,11.49,0,0,0,1.34-5,18,18,0,0,0-2.14-10,11.94,11.94,0,0,0-3.39-4.19,1.65,1.65,0,0,0-2,.25c-1.33,1.11-2.8,2-4.12,3.19a20.19,20.19,0,0,0-3.53,3.91c-1.9,2.78-3,6.66-2,10a1.42,1.42,0,0,0,1.54,1A1.38,1.38,0,0,0,83,32.52Z"/><path class="cls-2" d="M26.36,57a16.45,16.45,0,0,1-1.22-1.14l-.51-.57c-.31-.35.16.25-.11-.14l-.21-.32c-.15-.23-.3-.47-.43-.72l-.16-.34c-.06-.12-.14-.31,0-.08a9.91,9.91,0,0,1-.47-1.61c0-.12-.05-.25-.07-.37s0,.26,0-.08,0-.55,0-.83a7.73,7.73,0,0,1,0-.83s.06-.45,0-.22,0-.17,0-.21c.06-.27.12-.54.2-.8l.12-.35s.21-.48.05-.15a7.69,7.69,0,0,1,.85-1.4,1.68,1.68,0,0,0-2.64-2,9.79,9.79,0,0,0-1.85,8.11,8.93,8.93,0,0,0,5,6.6c1.4.57,2.53-1.55,1.46-2.51Z"/><path class="cls-2" d="M22.85,58.47a98.24,98.24,0,0,1,9.67,13c2.87,4.63,5.43,9.44,8.09,14.2,4.94,8.82,10.5,17.57,18.42,24a38.12,38.12,0,0,0,14.79,7.69c2.4.59,3.42-3.09,1-3.7-9.38-2.38-16.84-9.09-22.57-16.64C46,88.76,41.5,79.27,36,70.43c-3.14-5.06-6.62-10.06-11.1-14a1.46,1.46,0,0,0-2.06,2.07Z"/><path class="cls-2" d="M20.81,56.54c-1.9,12.3,0,25.37,6.17,36.23A50.64,50.64,0,0,0,73,117.91c2.48-.12,2.49-4,0-3.87A46.82,46.82,0,0,1,25.15,78.2c-1.65-7-1.29-14-.94-21.2.09-1.91-3.1-2.41-3.4-.46Z"/><path class="cls-2" d="M22.54,55.85a65.21,65.21,0,0,1,11,7.92,135.76,135.76,0,0,1,9.65,9.84c6.1,6.71,12.12,13.56,19.67,18.7a39.85,39.85,0,0,0,13.54,6.07l-1-2.6a17.16,17.16,0,0,1-7.26,5.79,18.45,18.45,0,0,1-4.55,1.28c-1.57.24-3.15.09-4.73.23a1.66,1.66,0,0,0-.44,3.25c3.58,1.13,8.07-.09,11.38-1.55a20.92,20.92,0,0,0,8.65-7.21,1.77,1.77,0,0,0-1-2.6c-17.81-4.4-27.93-21.54-40.72-33.12a48.09,48.09,0,0,0-12.55-8.71c-1.8-.8-3.37,1.67-1.58,2.71Z"/><path class="cls-2" d="M34.67,69.53l.32-.17.19-.11s.24-.14.06,0,0,0,.06,0a2.87,2.87,0,0,0,.4-.18l.17-.08c.25-.12-.29.11,0,0a7.8,7.8,0,0,1,1.53-.39l-.38.05a6.12,6.12,0,0,1,1.6,0l-.38,0,.38.06a1.51,1.51,0,0,0,1.08-.14,1.39,1.39,0,0,0,.64-.84,1.42,1.42,0,0,0-1-1.72A6.13,6.13,0,0,0,36,66a4.76,4.76,0,0,0-2.73,2.06,1.07,1.07,0,0,0,.16,1.28,1.09,1.09,0,0,0,1.28.16Z"/><path class="cls-2" d="M39.26,82.92a7.15,7.15,0,0,0,7.31,0,7.29,7.29,0,0,0,2.49-2.51c.63-1.08,1.32-2.81.6-4a1.52,1.52,0,0,0-2.38-.31,3.77,3.77,0,0,0-.7,1.6c0,.12-.07.24-.11.36s-.13.38,0,.14-.06.12-.07.14l-.15.27c-.1.18-.22.34-.33.52s.21-.24,0,0c-.06.08-.13.15-.2.23a5.44,5.44,0,0,1-.49.47c-.21.18.05,0,.05,0l-.31.21c-.09.06-.44.32-.56.3l.16-.06-.19.07-.31.11c-.22.06-.43.11-.65.15-.42.08.21,0,0,0l-.33,0a5,5,0,0,1-.67,0,1.3,1.3,0,0,1-.4,0l.16,0-.2,0a4.74,4.74,0,0,1-.65-.16l-.32-.1c-.32-.1.2.1-.13-.06a1.54,1.54,0,0,0-1.55,2.66Z"/><path class="cls-2" d="M58.82,85.55c-1.54-2.62-5.37-3.19-8.08-2.34a6.94,6.94,0,0,0-5.06,6.68,8.37,8.37,0,0,0,4.61,7.28,7.47,7.47,0,0,0,9.17-2.49c2.17-3.09,1-8.18-2.47-9.82a1.6,1.6,0,0,0-1.62,2.77l.37.24c-.41-.28.52.43.13.1a7.18,7.18,0,0,1,.63.6c.31.32-.14-.24.1.13.08.12.17.24.24.37s.14.26.21.38.08.18,0,0l.11.27a8.59,8.59,0,0,1,.21.84c.1.44,0-.29,0,.16,0,.14,0,.28,0,.43s0,.28,0,.43c0-.36,0,.1,0,.14s-.07.28-.11.42-.06.18-.1.27c.06-.15.06-.14,0,0s-.14.26-.22.38-.29.42-.09.17a5.26,5.26,0,0,1-.61.64s-.4.31-.14.13l-.37.25-.39.22-.27.13c.14-.06.13,0,0,0a6.64,6.64,0,0,1-.87.25s-.52.08-.18,0l-.45,0H53s-.52,0-.19,0a9.32,9.32,0,0,1-.91-.23c-.41-.12.26.14-.12,0l-.36-.18a6.9,6.9,0,0,1-.67-.43c.29.21-.06-.06-.1-.09l-.29-.28a3.83,3.83,0,0,1-.28-.29s-.38-.49-.17-.21a7.8,7.8,0,0,1-.75-1.28c.15.33,0-.07,0-.12s-.09-.26-.13-.38a7,7,0,0,1-.2-.91c.06.39,0-.05,0-.11s0-.26,0-.39,0-.26,0-.39.09-.49,0-.1a6.49,6.49,0,0,1,.19-.76c0-.06.19-.45,0-.12.08-.15.16-.31.25-.46s.13-.21.2-.32c.22-.34-.21.21.07-.08s.35-.35.53-.53-.26.16.08-.06l.31-.21a5.4,5.4,0,0,1,.79-.41c-.35.15.05,0,.1,0a4.74,4.74,0,0,1,.5-.15l.37-.09c.08,0,.63-.09.23,0,.3,0,.6,0,.9,0l.39,0L54,86c-.2,0-.2,0,0,0a8.07,8.07,0,0,1,.88.21l.37.13c.16.06.16.06,0,0l.23.11c.53.27,1.05.59,1.55.91a1.32,1.32,0,0,0,1.79-1.79Z"/><path class="cls-2" d="M68.25,91.27a6.38,6.38,0,0,0-6.57,1,6.1,6.1,0,0,0-1.82,6.26,5.79,5.79,0,0,0,1.81,2.9,6.17,6.17,0,0,0,3.37,1.4,5.41,5.41,0,0,0,5.5-2.9c1-2.33.51-5.58-1.84-7a1.51,1.51,0,0,0-1.83,2.37l.44.39.21.21c.19.21-.08-.06-.06-.08l.31.49a2.29,2.29,0,0,0,.13.27c-.08-.2-.1-.25-.06-.14s0,.09,0,.14.1.37.15.56c.08.34,0-.35,0,0,0,.06,0,.13,0,.19A5.81,5.81,0,0,1,68,98c0,.34.08-.35,0,0,0,.1,0,.19-.07.29a2.76,2.76,0,0,1-.08.27c-.12.33,0,0,0,0s-.2.37-.23.42c-.2.29,0,0,0,0s-.18.2-.19.22l-.22.2c-.22.2.25-.15,0,0a5.39,5.39,0,0,1-.52.3c-.31.16.31-.09,0,0l-.19.07c-.06,0-.56.18-.59.13l.19,0h-.51c-.1,0-.21,0-.31,0h-.1c-.17,0-.14,0,.09,0a2,2,0,0,1-.51-.11l-.3-.09-.1,0,.08,0a1.71,1.71,0,0,1-.55-.29,1.17,1.17,0,0,1-.26-.17l.14.1-.16-.13c-.13-.12-.24-.26-.37-.39s.17.27,0,0c-.05-.09-.11-.18-.17-.27L63,98.26c0-.05-.05-.1-.08-.14s0-.13,0,.06a1.69,1.69,0,0,1-.19-.6c0-.07,0-.14-.05-.21l0-.1c0-.17,0-.14,0,.08-.08-.12,0-.48,0-.63a4942576049752.78,4942576049752.78,0,0,0,0-.42c0-.17,0-.14,0,.08-.06-.09.11-.5.14-.61s0-.13.07-.2c.1-.33-.15.29,0,0a5.79,5.79,0,0,1,.31-.54.66.66,0,0,1,.12-.17l.11-.1.23-.23.16-.13-.1.07a5.87,5.87,0,0,1,.59-.37l.28-.14.15-.07-.11,0a2.25,2.25,0,0,1,.72-.23l.32-.07c.29-.06-.29,0,0,0l.76,0c.22,0,.43,0,.65,0-.33,0,0,0,.07,0l.42.11a1.27,1.27,0,0,0,1.57-.89,1.32,1.32,0,0,0-.89-1.57Z"/><path class="cls-2" d="M55.21,85.41l.78,1c.11.13.23.24.35.36l.18.17,0,0,.26.2a1.56,1.56,0,0,0,.33.14l.12,0a1.43,1.43,0,0,0,.65,0,1.36,1.36,0,0,0,.54-.32,1.22,1.22,0,0,0,.31-.54,1.2,1.2,0,0,0,0-.65l0-.1a1.62,1.62,0,0,0-.37-.63L58.18,85a3.15,3.15,0,0,0-.37-.36l-1-.79-.27-.12a1,1,0,0,0-.46,0,.57.57,0,0,0-.29.08.85.85,0,0,0-.37.24,1.32,1.32,0,0,0-.3.51.8.8,0,0,0,0,.46.84.84,0,0,0,.14.43Z"/><path class="cls-2" d="M53.8,85.11c.26.32.54.63.81.93.14.15.27.3.42.44s.31.26.47.39l.12.08a2,2,0,0,0,.41.2l.34,0,.33,0L57,87a1,1,0,0,0,.36-.32.78.78,0,0,0,.16-.28.72.72,0,0,0,.08-.32.62.62,0,0,0,0-.33.8.8,0,0,0-.15-.47,1.54,1.54,0,0,0-.27-.36l-.09-.11a1.52,1.52,0,0,0-.22-.22c-.15-.14-.31-.27-.48-.4-.39-.31-.78-.62-1.19-.91a.84.84,0,0,0-.43-.14.9.9,0,0,0-.46,0L54,83.3a.89.89,0,0,0-.32.29.68.68,0,0,0-.15.26,1,1,0,0,0-.1.44l0,.31a1.19,1.19,0,0,0,.3.51Z"/></svg>