<svg id="Layer_1" data-name="Layer 1" xmlns="http://www.w3.org/2000/svg" viewBox="0 0 140.11 140.11"><defs><style>.cls-1{fill:#e8e544;}.cls-2{fill:#fff;}</style></defs><circle class="cls-1" cx="70.05" cy="70.05" r="70.05"/><path class="cls-2" d="M57.3,93.54a27.2,27.2,0,0,0-3.08.65,11.55,11.55,0,0,1-5-.16,20.2,20.2,0,0,1-8.07-4.82C35.32,83.9,31.72,76.3,29.74,68.76c-2.36-9-1.84-21.51,7.1-26.92a16.33,16.33,0,0,1,9.21-2.09c3.24.15,6.33,1.16,9.53,1.61,2.86.41,5.56-.21,8.34-.81,3.62-.77,7.27-1.21,10.9-.24,9.81,2.63,12.84,13.91,11.85,22.91A43.05,43.05,0,0,1,84,73.83a47.63,47.63,0,0,1-5.57,10.8,24.54,24.54,0,0,1-7.33,6.84c-2.68,1.58-6.26,3.09-9.43,2.84-1.47-.12-2.87-.76-4.35-.77a.75.75,0,0,0,0,1.5c1.6,0,3.13.73,4.75.79a15.22,15.22,0,0,0,5.19-1,23.76,23.76,0,0,0,8.43-4.9,31.3,31.3,0,0,0,6.73-9,56.75,56.75,0,0,0,4.71-12c2.48-9.65,1.65-22.68-7.83-28.43a17.58,17.58,0,0,0-9.19-2.31c-3.51,0-6.82,1.08-10.26,1.62-3.27.51-6.35-.46-9.54-1.06a21.81,21.81,0,0,0-11.45.48C28.92,42.76,26.06,54.72,27.3,64.08a46.29,46.29,0,0,0,3.12,11.38,44.29,44.29,0,0,0,6.09,11c4.08,5.13,10.3,10.23,17.28,9.33,1.18-.15,2.33-.64,3.51-.72C58.26,95,58.27,93.47,57.3,93.54Z"/><path class="cls-2" d="M58.39,41c0-6.79-1.4-12.3-3.12-12.3a1.49,1.49,0,0,0,1.42-1.54l-.12,0c2.13.2,3.39,6.3,2.82,13.64"/><path class="cls-2" d="M59.14,41a35.46,35.46,0,0,0-1-9.24C57.73,30.35,57,28,55.27,27.91v1.5a2.29,2.29,0,0,0,2.17-2.29.76.76,0,0,0-.56-.72l-.11,0-.2,1.47c-.06,0,.12.06.14.07a1.21,1.21,0,0,1,.23.19,2.81,2.81,0,0,1,.53.79,10.55,10.55,0,0,1,.87,2.9,34.76,34.76,0,0,1,.3,8.94c-.08,1,1.42,1,1.5,0a33.88,33.88,0,0,0-.5-10c-.38-1.65-1.08-4.09-3.07-4.34-.83-.1-1,1.36-.2,1.48h.12l-.55-.72a.75.75,0,0,1-.67.79.75.75,0,0,0,0,1.5c.08,0,0,0,0,0a.52.52,0,0,1,.17.13,2.65,2.65,0,0,1,.49.71,10.79,10.79,0,0,1,.86,2.55,36.5,36.5,0,0,1,.8,8.14.75.75,0,0,0,1.5,0Z"/><circle class="cls-1" cx="87.57" cy="72.97" r="7.3"/><path class="cls-2" d="M90.19,79a6.66,6.66,0,0,1-7.44-1.58A6.55,6.55,0,1,1,94,71.76a6.64,6.64,0,0,1-4,7.29c-.88.39-.12,1.68.76,1.3a8.31,8.31,0,1,0-.18.07C91.47,80.06,91.08,78.61,90.19,79Z"/><circle class="cls-1" cx="96.32" cy="75.89" r="7.3"/><path class="cls-2" d="M98.94,81.89a6.73,6.73,0,1,0-.18.08c-.88.38-.12,1.68.76,1.3a8.31,8.31,0,1,0-.18.07C100.23,83,99.84,81.53,98.94,81.89Z"/><circle class="cls-1" cx="75.89" cy="78.81" r="7.3"/><path class="cls-2" d="M78.51,84.81a6.73,6.73,0,1,0-.18.08c-.88.38-.12,1.68.76,1.29a7.85,7.85,0,1,0-.18.08C79.79,85.9,79.41,84.45,78.51,84.81Z"/><circle class="cls-1" cx="87.57" cy="81.73" r="7.3"/><path class="cls-2" d="M90.19,87.73a6.72,6.72,0,1,0-.18.08c-.88.38-.12,1.67.76,1.29a7.85,7.85,0,1,0-.18.08C91.47,88.82,91.08,87.37,90.19,87.73Z"/><circle class="cls-1" cx="99.24" cy="99.24" r="7.3"/><path class="cls-2" d="M101.86,105.25a6.66,6.66,0,0,1-7.44-1.58,6.55,6.55,0,1,1,7.26,1.65c-.88.38-.12,1.68.76,1.3a8.31,8.31,0,1,0-.18.07C103.14,106.33,102.76,104.88,101.86,105.25Z"/><circle class="cls-1" cx="64.21" cy="96.32" r="7.3"/><path class="cls-2" d="M66.84,102.33a6.67,6.67,0,0,1-7.44-1.57,6.55,6.55,0,1,1,7.26,1.64c-.89.39-.12,1.68.75,1.3a8.11,8.11,0,1,0-.17.07C68.12,103.42,67.73,102,66.84,102.33Z"/><circle class="cls-1" cx="72.97" cy="99.24" r="7.3"/><path class="cls-2" d="M75.59,105.25a6.66,6.66,0,0,1-7.44-1.58,6.55,6.55,0,1,1,7.26,1.65c-.88.38-.12,1.68.76,1.3a8.31,8.31,0,1,0-.18.07C76.88,106.33,76.49,104.88,75.59,105.25Z"/><circle class="cls-1" cx="70.05" cy="84.65" r="7.3"/><path class="cls-2" d="M72.67,90.65a6.92,6.92,0,1,0-.17.08c-.89.38-.13,1.67.75,1.29a7.85,7.85,0,1,0-.18.08C74,91.74,73.57,90.29,72.67,90.65Z"/><circle class="cls-1" cx="87.57" cy="102.16" r="7.3"/><path class="cls-2" d="M90.19,108.16a6.64,6.64,0,0,1-7.44-1.57A6.55,6.55,0,1,1,94,101a6.64,6.64,0,0,1-4,7.29c-.88.38-.12,1.68.76,1.3a8.31,8.31,0,1,0-.18.07C91.47,109.25,91.08,107.8,90.19,108.16Z"/><circle class="cls-1" cx="81.73" cy="93.4" r="7.3"/><path class="cls-2" d="M84.35,99.41a6.68,6.68,0,0,1-7.44-1.57,6.55,6.55,0,1,1,7.26,1.64c-.88.39-.12,1.68.76,1.3a8.32,8.32,0,1,0-.18.07C85.63,100.5,85.25,99.05,84.35,99.41Z"/><circle class="cls-1" cx="90.48" cy="90.48" r="7.3"/><path class="cls-2" d="M93.11,96.49a6.67,6.67,0,0,1-7.44-1.57,6.55,6.55,0,1,1,7.26,1.64c-.89.39-.12,1.68.75,1.3a7.66,7.66,0,1,0-.17.08C94.39,97.58,94,96.13,93.11,96.49Z"/><circle class="cls-1" cx="102.16" cy="90.48" r="7.3"/><path class="cls-2" d="M104.78,96.49a6.68,6.68,0,0,1-7.44-1.57,6.55,6.55,0,1,1,7.26,1.64c-.88.39-.12,1.68.76,1.3a7.85,7.85,0,1,0-.18.08C106.06,97.58,105.68,96.13,104.78,96.49Z"/><path class="cls-2" d="M119.14,80.23c-1.58-3.77-9.19-4.16-17-.88l.07,0c.13.31-.45.85-1.31,1.21,8-2.76,15.6-1.88,16.93,2A2,2,0,0,1,119,79.94"/><path class="cls-2" d="M119.79,79.85c-1.09-2.44-4-3.24-6.43-3.43a25.29,25.29,0,0,0-11.43,2.21l.4,1.44.07,0-.92-.52c0-.34-.09-.13-.33,0a3.92,3.92,0,0,1-.64.34c-.77.35-.22,1.64.58,1.37a25.53,25.53,0,0,1,10.27-1.53c2,.18,4.93.8,5.74,3,.33.9,1.76.53,1.45-.39a1.33,1.33,0,0,1,.83-1.72c.87-.43.11-1.72-.76-1.3a2.79,2.79,0,0,0-1.52,3.41l1.45-.39c-1-2.58-3.71-3.62-6.24-4a25.73,25.73,0,0,0-11.62,1.47l.58,1.37c.85-.39,1.82-1,1.66-2.06a.76.76,0,0,0-.93-.53l-.07,0c-.88.36-.5,1.81.4,1.44a25.38,25.38,0,0,1,10.26-2.19c2.15.06,4.92.53,5.9,2.73.4.88,1.69.11,1.3-.76Z"/><path class="cls-2" d="M43.56,43.17c-2.89,0-5.1,2.16-6.49,4.52A21.78,21.78,0,0,0,34.45,58.6a.75.75,0,0,0,1.5,0,20.48,20.48,0,0,1,2.23-9.82c1.11-2,2.9-4.06,5.38-4.11a.75.75,0,0,0,0-1.5Z"/></svg>