<svg id="Layer_1" data-name="Layer 1" xmlns="http://www.w3.org/2000/svg" viewBox="0 0 141.12 141.12"><defs><style>.cls-1{fill:#f79a78;stroke:#f79a78;}.cls-1,.cls-2,.cls-4{stroke-miterlimit:10;}.cls-2,.cls-4{fill:none;stroke:#fff;}.cls-2{stroke-width:4px;}.cls-3{fill:#fff;}.cls-4{stroke-width:3px;}</style></defs><circle class="cls-1" cx="70.56" cy="70.56" r="70.06"/><path class="cls-2" d="M41.58,79.18l6.71,28"/><path class="cls-2" d="M93.14,105.64a44.06,44.06,0,0,1-46,1.54"/><path class="cls-2" d="M97.19,79.86l-5.47,27.83"/><path class="cls-3" d="M41.14,49.61c-4-.17-7.81,2.8-10.09,5.86A15.31,15.31,0,0,0,28.25,67a16.89,16.89,0,0,0,17,14,19.47,19.47,0,0,0,6.66-1.38c2.05-.82,5.66-2.31,6-4.76.22-1.47-.61-3.18-2.36-3.1-1.9.09-3.12,1.62-4.7,2.51a12.63,12.63,0,0,1-4.09,1.44A11.81,11.81,0,0,1,38.53,74c-4.63-3-6.75-9.29-4-14.23a11.44,11.44,0,0,1,2.85-3.38,15.6,15.6,0,0,1,4.39-2.11,2.38,2.38,0,0,0-.63-4.65Z"/><path class="cls-3" d="M55,75.78c1.73,2.08,4.73,3.32,7.24,4.17a22.87,22.87,0,0,0,8.25,1.18,23.68,23.68,0,0,0,15-6.13,3,3,0,0,0,0-4.17,3,3,0,0,0-4.18,0A17.75,17.75,0,0,1,64,74.51c-2.11-.66-3.81-1.94-5.79-2.82A2.62,2.62,0,0,0,55,75.78Z"/><path class="cls-3" d="M81.43,73.19C85.91,81.31,96.57,85.08,105,81s10.87-15.5,5.41-22.83C107,53.58,101.49,50.83,95.84,50a3.11,3.11,0,0,0-3.69,2.1c-.39,1.42.49,3.44,2.1,3.69a18.14,18.14,0,0,1,10,4.41A10.61,10.61,0,0,1,106.81,64a9.14,9.14,0,0,1,.51,4.4c0,.35,0,.06,0,0,0,.21-.07.42-.11.63a10.38,10.38,0,0,1-.31,1.22,6.5,6.5,0,0,1-.82,1.89,8.47,8.47,0,0,1-2.78,3,9.6,9.6,0,0,1-1.85.95,11.09,11.09,0,0,1-1.28.38,6.79,6.79,0,0,0-.83.19,12.73,12.73,0,0,1-2.47.06,9,9,0,0,1-2.15-.35,12.75,12.75,0,0,1-8.12-6.19c-1.87-3.38-7-.36-5.18,3Z"/><path class="cls-3" d="M76.1,37.4c.5.18,1,.36,1.48.56-.62-.25.18.08.24.11l.71.34a28.25,28.25,0,0,1,2.63,1.49c.44.28.87.58,1.3.89l.12.09.62.49a27.48,27.48,0,0,1,2.31,2.14q.54.57,1,1.17c.15.16.29.33.43.5l.24.31q-.26-.35-.06-.09c.59.81,1.16,1.64,1.68,2.5a27.4,27.4,0,0,1,1.44,2.8c.27.58-.14-.41.11.25.09.24.19.49.27.74.18.49.34,1,.49,1.5A3,3,0,0,0,97,51.59a30.54,30.54,0,0,0-19.25-20A3,3,0,0,0,74,33.71,3.07,3.07,0,0,0,76.1,37.4Z"/><path class="cls-3" d="M44.1,53.31c1.62-1.75,3.07-3.63,4.52-5.51l1-1.27c.53-.69-.36.47.18-.23l.48-.62c.67-.85,1.36-1.69,2.07-2.5s1.43-1.56,2.2-2.28c.36-.34.74-.65,1.12-1s-.39.27.17-.13l.61-.42c.4-.27.82-.52,1.25-.76.22-.12.43-.23.66-.33s.67-.29.18-.1a15.62,15.62,0,0,1,3.22-.86,3,3,0,0,0,2.09-3.69,3.08,3.08,0,0,0-3.69-2.09c-4.67.71-8.6,3.57-11.71,7-1.6,1.78-3,3.69-4.5,5.59l-.48.63-.18.23c-.39.49-.77,1-1.16,1.46-.72.9-1.46,1.77-2.24,2.61a3,3,0,0,0,4.24,4.24Z"/><line class="cls-2" x1="61.74" y1="76.52" x2="64.74" y2="113.25"/><line class="cls-4" x1="77.54" y1="75.59" x2="74.39" y2="113.67"/><line class="cls-4" x1="51.41" y1="84.27" x2="55.56" y2="110.45"/><line class="cls-4" x1="87.46" y1="86.87" x2="81.9" y2="112.43"/><path class="cls-3" d="M72.93,26.85c-1.54-1.93-5.21-1.3-7.24-.53A12.18,12.18,0,0,0,60,30.64a11.22,11.22,0,0,0-.07,12.5,10.47,10.47,0,0,0,11.5,4.58,10.75,10.75,0,0,0,7.89-9.46,10.56,10.56,0,0,0-2-6.63,11.14,11.14,0,0,0-2.79-2.73,7.31,7.31,0,0,0-3.66-1.15,2.1,2.1,0,0,0-2.08,1.84,2.15,2.15,0,0,0,1.52,2.33c-.38-.15.25.12.26.13l.37.22c.31.18.63.34.93.53,0,0,.62.43.23.13a3,3,0,0,1,.33.28,9,9,0,0,1,.91.94c-.27-.32,0,0,.09.13l.3.46a9,9,0,0,1,.5,1c-.17-.39,0,.05,0,.15s.11.35.16.53.08.35.13.53,0,.22.05.32q0-.39,0,0c0,.37,0,.73,0,1.09,0,.1-.08.45,0,0,0,.22-.09.43-.14.64s-.09.28-.13.43c-.18.62.2-.33-.1.24a9.62,9.62,0,0,1-.61,1c-.23.33.36-.37-.1.12a4.73,4.73,0,0,1-.37.4l-.4.37c.32-.28,0,0-.13.08a8.79,8.79,0,0,1-.83.51c-.2.11-.39.2-.59.29.49-.21-.17.05-.22.07-.35.11-.7.22-1,.3-.09,0-.81.13-.18,0l-.43,0c-.37,0-.72,0-1.09,0-.68,0,.49.14-.17,0-.22-.05-.43-.09-.64-.15s-.34-.13-.52-.17c-.36-.07.47.28-.08,0-.32-.18-.63-.35-.93-.55s-.07,0,0,0l-.49-.43c-.11-.1-.21-.21-.31-.31s-.64-.81-.28-.31a9.06,9.06,0,0,1-.6-.92c-.07-.13-.14-.26-.2-.39s-.31-.76-.09-.17c-.12-.31-.22-.62-.31-.94s-.09-.35-.13-.53-.08-.63,0-.15c0-.37,0-.73,0-1.1s0-.43,0-.65c0,.56,0,.22,0,.07.09-.36.19-.71.29-1.07.2-.69-.26.46.08-.18.1-.2.2-.4.32-.59s.2-.32.3-.48c.4-.58-.18.15.19-.23s.63-.64,1-1c.11-.1.42-.27,0,0l.66-.43c.36-.23.72-.42,1.09-.61.66-.34-.54.17.16-.06l.65-.2a5.29,5.29,0,0,1,.54-.13c.74-.16-.32,0,.26-.06,1.25-.08,2.32.13,3.47-.56a2.5,2.5,0,0,0,.5-3.85Z"/><path class="cls-3" d="M74,29.5c.06-.18.18-.4.23-.59-.15.66-.08.19,0,0s.33-.68.51-1,.37-.64.57-.94l.34-.5.17-.24-.17.22c0-.23.54-.66.69-.82s.48-.52.74-.77.56-.53.86-.79l.37-.31c.21-.17-.54.4,0,0a21.1,21.1,0,0,1,3.81-2.23,2.24,2.24,0,0,1,.55-.25c-.24,0-.52.22-.07,0s.69-.27,1-.39c.77-.28,1.55-.51,2.33-.73a3,3,0,1,0-1.59-5.78A27.22,27.22,0,0,0,75,18.77a20.15,20.15,0,0,0-6.8,9.14,3,3,0,0,0,2.1,3.69A3.08,3.08,0,0,0,74,29.5Z"/><path class="cls-3" d="M48,107.72h0l.17,0-.16,0,.48.64v0a.76.76,0,0,0-.38-.67.36.36,0,0,1-.12-.08l.15.12a1.21,1.21,0,0,1-.16-.16l.13.16a1.35,1.35,0,0,1-.15-.26l.08.19a1.38,1.38,0,0,1-.08-.27l0,.21a1,1,0,0,1,0-.24l0,.22a.73.73,0,0,1,.07-.24l-.09.2a.86.86,0,0,1,.1-.16l-.13.17,0,0a.87.87,0,0,0,.24-.58.81.81,0,0,0-1.39-.57,1.48,1.48,0,0,0-.4.72,1.76,1.76,0,0,0,0,.85,2,2,0,0,0,.39.72,1.42,1.42,0,0,0,.5.38l.19.08a.55.55,0,0,0,.31,0,.78.78,0,0,0,.45-.21l0,0-.64.17a1.71,1.71,0,0,0,.39,0,.7.7,0,0,0,.45-.19.68.68,0,0,0,.19-.45.7.7,0,0,0-.19-.45.73.73,0,0,0-.45-.19Z"/><path class="cls-3" d="M46.51,108.26a.71.71,0,0,0,0-1.41.71.71,0,0,0,0,1.41Z"/><path class="cls-3" d="M48,106.41l-.2-2.23c0-.36-.07-.72-.1-1.07a2.26,2.26,0,0,0-.36-1.36.65.65,0,0,0-1,.13,2.05,2.05,0,0,0-.1,1.23c0,.37.07.74.11,1.11l.2,2.19a.73.73,0,0,0,1.45,0Z"/><path class="cls-3" d="M47.51,107.56c0-1.06-.11-2.12-.16-3.18l-.09-1.56a4,4,0,0,0-.26-1.7.66.66,0,0,0-1.18.15,4,4,0,0,0,0,1.61l.1,1.56c.07,1,.13,2.08.22,3.12a.7.7,0,1,0,1.4,0Z"/><path class="cls-3" d="M93.56,106.77a.75.75,0,0,0,0-1.49.75.75,0,0,0,0,1.49Z"/><path class="cls-3" d="M51.86,84.53l.34,0-.19,0h0a.62.62,0,0,0,.38,0,.68.68,0,0,0,.32-.18l.11-.15a.65.65,0,0,0,.1-.36.46.46,0,0,0-.06-.28.51.51,0,0,0-.15-.23.73.73,0,0,0-.7-.19h0l.19,0h-.34a.66.66,0,0,0-.27.06.54.54,0,0,0-.22.15.46.46,0,0,0-.14.22.42.42,0,0,0-.06.27l0,.18a.87.87,0,0,0,.18.31l.14.11a.73.73,0,0,0,.35.09Z"/><path class="cls-3" d="M51.1,83.45l-.3,0,.21,0h0l.19.08,0,0a1,1,0,0,0-.43-.11.88.88,0,0,0-.42.11h0a.84.84,0,0,0,0,1.44h0a.88.88,0,0,0,.42.11,1,1,0,0,0,.43-.11l0,0L51,85h0l-.21,0,.3,0a.54.54,0,0,0,.3-.06.63.63,0,0,0,.24-.16.56.56,0,0,0,.16-.25.51.51,0,0,0,.07-.3l0-.2a.69.69,0,0,0-.2-.35l-.15-.12a.76.76,0,0,0-.39-.1Z"/><path class="cls-3" d="M87.44,87.33a.82.82,0,0,0,0-1.63.82.82,0,0,0,0,1.63Z"/><path class="cls-3" d="M88.74,87.28c0-.19,0-.38,0-.57v-.58a.8.8,0,0,0-.08-.37.79.79,0,0,0-.2-.31.72.72,0,0,0-.32-.2.78.78,0,0,0-.37-.09,1,1,0,0,0-.68.29,1,1,0,0,0-.29.68v.58c0,.19,0,.38,0,.57a.88.88,0,0,0,.57.84.69.69,0,0,0,.35.08.93.93,0,0,0,.65-.27l.14-.19a.82.82,0,0,0,.13-.46Z"/><path class="cls-3" d="M87.82,87a.91.91,0,0,0,0-1.81.91.91,0,0,0,0,1.81Z"/><path class="cls-3" d="M87.82,87.3a.79.79,0,0,0,0-1.57.79.79,0,0,0,0,1.57Z"/><path class="cls-3" d="M87.06,87.75a.85.85,0,0,0,0-1.7.85.85,0,0,0,0,1.7Z"/><path class="cls-3" d="M51.48,84.24a.79.79,0,0,0,0-1.57.79.79,0,0,0,0,1.57Z"/></svg>