<svg id="Layer_1" data-name="Layer 1" xmlns="http://www.w3.org/2000/svg" viewBox="0 0 137.52 137.52"><defs><style>.cls-1{fill:#49bfaa;}.cls-2{fill:#fff;}</style></defs><circle class="cls-1" cx="68.76" cy="68.76" r="68.76"/><path class="cls-2" d="M45,51.39a14.07,14.07,0,0,0-15.08-2.17c-4.88,2.11-8.29,6.54-10.31,11.34-3.93,9.34-3,21.22,4.21,28.76a28.41,28.41,0,0,0,7.7,5.56c2.77,1.41,6.21,3.24,9.41,3,1.93-.18,2-3.12,0-3.06-2.53.07-5.07-1.19-7.29-2.28a28,28,0,0,1-6.15-3.91,21.13,21.13,0,0,1-6.67-11.24c-2-8.34.51-19.23,7.89-24.3A13.23,13.23,0,0,1,36,50.64a11.36,11.36,0,0,1,3.88.59,22.29,22.29,0,0,1,3.69,2c1.1.65,2.45-1,1.41-1.83Z"/><path class="cls-2" d="M52.08,52.74C49.24,49.3,43.6,50,40.13,52c-4.15,2.45-6.49,6.86-8,11.28C30.43,68.21,29,73.59,29.41,78.84A21.94,21.94,0,0,0,34,90.75c2.7,3.47,6.92,6.93,11.38,7.67,1.52.25,2.86-2,1.16-2.74-3.31-1.4-6.26-2.78-8.78-5.43a19.15,19.15,0,0,1-4.87-9c-1-4.46-.14-9.11,1-13.44,1.11-4,2.44-8.33,5.46-11.39S47,52.17,50.73,54.5c1.14.7,2.12-.83,1.35-1.76Z"/><path class="cls-2" d="M61.55,55.22a8.66,8.66,0,0,0-8-3.67,9.73,9.73,0,0,0-7.93,5.52c-1.77,3.48-2.32,7.57-2.68,11.41a55.78,55.78,0,0,0,.36,13.23,52,52,0,0,0,1.52,7.09c.5,1.75,1.25,4.49,3.58,4.09a1.08,1.08,0,0,0,.8-1,9.13,9.13,0,0,0-1-2.48,25.55,25.55,0,0,1-.84-3,51.31,51.31,0,0,1-1.27-7,52.77,52.77,0,0,1,.24-13.81c.55-3.53,1.26-8.21,4.57-10.28,2.81-1.76,6.69-1,9.1,1.1.81.73,2.28-.23,1.6-1.24Z"/><path class="cls-2" d="M59.39,55.5c.38,1.66,1.18,3.22,1.55,4.89a33.87,33.87,0,0,1,.58,5.5c.19,3.67.35,7.33.31,11a66,66,0,0,1-.94,11,48.46,48.46,0,0,1-1.32,5.41,8.72,8.72,0,0,1-.77,1.94c-.37.62-.9,1.12-1.31,1.71s.19,1.62,1,1.67c3.58.27,4.51-6.15,5-8.58a65.61,65.61,0,0,0,1.32-12.18c.08-4.13-.14-8.28-.47-12.4C64,61.89,63.76,57.19,61,54.55a1,1,0,0,0-1.64,1Z"/><path class="cls-2" d="M39.71,97.23a5.28,5.28,0,0,0,2.93,1,18.15,18.15,0,0,0,3.13.17,21.21,21.21,0,0,0,3-.31c1.08-.18,2.92-.47,2.94-1.89a1.36,1.36,0,0,0-1.35-1.35,5.14,5.14,0,0,0-1.64.28,19,19,0,0,1-2.55.46,18.41,18.41,0,0,1-3,0c-.49,0-1-.06-1.47-.11a3.85,3.85,0,0,0-1.55,0,1,1,0,0,0-.44,1.69Z"/><path class="cls-2" d="M48,94.68c.66,2.1,3.15,3.48,5.13,4.07a10.38,10.38,0,0,0,3.23.45c1.13,0,2.75-.13,3.57-1a1.39,1.39,0,0,0-.6-2.3,4.35,4.35,0,0,0-1.76.16l-.36.07h-.11c-.22,0-.44,0-.67,0a9.7,9.7,0,0,1-1.32,0l-.37,0c.16,0,0,0,0,0-.25-.05-.49-.09-.73-.15a13.19,13.19,0,0,1-1.26-.4l-.28-.11-.14-.06-.59-.31c-.79-.45-1.49-1.07-2.3-1.49A1,1,0,0,0,48,94.68Z"/><path class="cls-2" d="M58.51,97.94c7.93,3.89,18.37,0,23.51-6.66C88.36,83,87.69,71.83,83.75,62.7a36.16,36.16,0,0,0-4.07-7.32c-1.53-2-3.5-4-6.17-4.25-1.36-.1-1.71,1.81-.66,2.46a14.19,14.19,0,0,1,4.38,3.66,35.38,35.38,0,0,1,3.21,5.61A32,32,0,0,1,83.73,76c.11,8.18-4,16.19-11.89,19.21a22.88,22.88,0,0,1-12.49.75c-1.13-.2-2,1.42-.84,2Z"/><path class="cls-2" d="M74.56,52c-.92-1.13-2.73-1.33-4.08-1.17a7.55,7.55,0,0,0-1.15.23,2.28,2.28,0,0,1-.81.19c-.73,0-1.45-.25-2.2-.25a10.19,10.19,0,0,0-4.14.91,5.81,5.81,0,0,0-3.24,2.75C58.41,56,60.32,56.89,61.23,56a7.51,7.51,0,0,1,2.35-1.65,7.33,7.33,0,0,1,3.31-.53c.59,0,1.17.23,1.76.23a7,7,0,0,0,1.85-.46c1.15-.29,2.18.15,3.32.21s1.27-1.14.74-1.79Z"/><path class="cls-2" d="M78,52.7c1,.1,2-.06,3.08.1a9.9,9.9,0,0,1,3,1,15.6,15.6,0,0,1,4.8,4.24,23.19,23.19,0,0,1,5,11.75,22.49,22.49,0,0,1-9.14,20.81A23.25,23.25,0,0,1,79,93.56,48.91,48.91,0,0,1,72.56,95c-1.73.37-1.19,2.81.4,2.92a17.53,17.53,0,0,0,6.69-1.24,26.26,26.26,0,0,0,5.94-2.93,25.61,25.61,0,0,0,8.84-9.92,26,26,0,0,0-3-27.39A17.78,17.78,0,0,0,85.18,51c-2.19-1-5.59-1.8-7.75-.32a1.07,1.07,0,0,0,.54,2Z"/><path class="cls-2" d="M55.62,53.31c1.54-6.51-.89-15.13-7.29-18.18a1.55,1.55,0,0,0-2.06.54,1.52,1.52,0,0,0,.54,2C52,40.19,54,47.22,52.73,52.51c-.45,1.88,2.45,2.68,2.89.8Z"/><path class="cls-2" d="M49.05,33.2c7.83,2.82,11.59,12.22,11.5,20a1.5,1.5,0,0,0,3,0C63.65,44,59,33.59,49.85,30.3c-1.82-.65-2.6,2.25-.8,2.9Z"/><path class="cls-2" d="M49,36c3.31,1.2,5.34,4.39,6.55,7.54a45.06,45.06,0,0,1,2.42,11,1.54,1.54,0,0,0,1.5,1.5,1.51,1.51,0,0,0,1.5-1.5c-.9-7.81-2.74-18.33-11.18-21.38C48,32.49,47.18,35.39,49,36Z"/><path class="cls-2" d="M39.33,50.91c1.3.23,2.68-.42,4-.62a14.79,14.79,0,0,1,3.58-.08,13.58,13.58,0,0,1,3.43.8c1.24.43,2.28,1.27,3.5,1.7,1.57.57,2.51-1.55,1.53-2.63a10.2,10.2,0,0,0-4.06-2.15A16,16,0,0,0,47,47.14a17.57,17.57,0,0,0-4.22.34c-1.41.28-3.19.67-4.08,1.87a1.06,1.06,0,0,0,.63,1.56Z"/><path class="cls-2" d="M50.9,50.49a1.94,1.94,0,0,0,.36-.15,1.7,1.7,0,0,0,.3-.23l.24-.21-.24.19a6.27,6.27,0,0,1,1.2-.7l-.31.13a3.88,3.88,0,0,1,.94-.27l-.36,0,.65-.09-.37,0a4.17,4.17,0,0,1,.61,0h.29a1.86,1.86,0,0,0,.92-.21,1.39,1.39,0,0,0,.7-1.22,1.45,1.45,0,0,0-.7-1.22,2.76,2.76,0,0,0-1.88-.14,5.18,5.18,0,0,0-1.19.39l.33-.14a5.95,5.95,0,0,0-1.92,1.14,4.08,4.08,0,0,0-.54.63l.19-.24a2.09,2.09,0,0,0-.55.94,1.12,1.12,0,0,0,.27,1.05,1.05,1.05,0,0,0,1.06.28Z"/><path class="cls-2" d="M61,48.72c.28.6,1.2.7,1.78.78l-.37,0a3.9,3.9,0,0,1,.89.24l-.34-.14a4.86,4.86,0,0,1,1,.58l-.3-.23a4,4,0,0,1,.65.65l-.23-.3c.09.12.18.25.26.38a1.86,1.86,0,0,0,.1.2,1.62,1.62,0,0,0,.94.72,1.46,1.46,0,0,0,1.12-.15l.3-.23a1.34,1.34,0,0,0,.37-.64c.33-.82-.45-1.82-1-2.37a4.86,4.86,0,0,0-1.5-1,5.31,5.31,0,0,0-1.76-.4,2.69,2.69,0,0,0-.93.14,1.91,1.91,0,0,0-.52.25A1.18,1.18,0,0,0,61,48.72Z"/><path class="cls-2" d="M66.12,52.72a6.22,6.22,0,0,1,5.22-2.51,14.71,14.71,0,0,1,7.93,2.3,1.5,1.5,0,0,0,1.51-2.59c-5-3-13.52-4.61-17.25,1.29-1,1.63,1.56,3.14,2.59,1.51Z"/><path class="cls-2" d="M73.26,53.54c7.37-1.73,14,3.86,15.7,10.77.48,1.87,3.37,1.08,2.9-.8C89.7,55,81.41,48.55,72.47,50.65c-1.88.44-1.09,3.33.79,2.89Z"/><path class="cls-2" d="M48.28,31.75a12.63,12.63,0,0,1-.11,1.51l.06-.4a8,8,0,0,1-.48,1.87l.15-.36a4.19,4.19,0,0,1-.46.83l.23-.3a1.66,1.66,0,0,1-.35.35l.31-.23-.24.14.36-.16a.72.72,0,0,1-.25.07l.4,0h-.11a1.5,1.5,0,1,0,0,3,3.14,3.14,0,0,0,2.67-2.09,10.54,10.54,0,0,0,.82-4.19,1.5,1.5,0,0,0-3,0Z"/><path class="cls-1" d="M51.59,95.27a3.4,3.4,0,0,0,.1,3.22"/><path class="cls-2" d="M50.77,94.79A3.94,3.94,0,0,0,50.15,97a3.07,3.07,0,0,0,.19,1.12c.06.14.11.29.18.42a2.6,2.6,0,0,0,.25.33,2.43,2.43,0,0,0,.49.41.86.86,0,0,0,1.28-.74,2.47,2.47,0,0,0,0-.38l0,.24c0-.12,0-.25,0-.37s-.08-.42-.11-.64l0,.29c0-.25-.09-.49-.12-.74l0,.29a4.28,4.28,0,0,1,0-1.13l0,.27a3.07,3.07,0,0,1,.21-.79,1,1,0,0,0-.1-.74A.93.93,0,0,0,52,94.4a1,1,0,0,0-1.19.39Z"/><path class="cls-1" d="M102.23,87.23c.19-.83-.56-1.62-1.29-2-3.06-1.78-6.74-1-10-.18L66.33,91.17c-5.4,1.35-10.81,2.71-16.1,4.42-5.6,1.81-11.06,4-16.51,6.22a4.2,4.2,0,0,0-1.54.9,2.48,2.48,0,0,0-.36,2.75"/><path class="cls-2" d="M103.3,87.23c.3-2.32-2.46-3.65-4.35-4.07a16.61,16.61,0,0,0-7.18.38c-5.64,1.28-11.24,2.81-16.86,4.21C63.84,90.53,52.71,93,42,97.08q-4.44,1.67-8.82,3.49c-2.39,1-3.65,3.06-2.52,5.57.62,1.36,3,.39,2.44-1a1.31,1.31,0,0,1,.8-1.92c1.06-.49,2.18-.89,3.27-1.32,2.28-.92,4.58-1.82,6.88-2.69,4.54-1.72,9.15-3.21,13.83-4.51,9.53-2.64,19.16-4.93,28.75-7.35,2.52-.63,5-1.39,7.62-1.82a12.21,12.21,0,0,1,3.67-.13c.93.14,3.25.62,3.23,1.86,0,1.42,2,1.33,2.14,0Z"/><path class="cls-1" d="M102.29,87.65l1.46,4.86a3.16,3.16,0,0,1,.2,1.62,2.22,2.22,0,0,1-.9,1.16c-6.82,5.37-16.09,5.28-24.68,6.11-15.15,1.47-29.94,6.33-45.33,4.33a1.94,1.94,0,0,1-1.35-.58"/><path class="cls-2" d="M101.22,88c.25,1.28.61,2.53,1,3.79a7,7,0,0,1,.47,1.76c0,.65-.73,1-1.25,1.36a22.43,22.43,0,0,1-6.19,2.89c-4.43,1.34-9.07,1.63-13.66,2-10.48.83-20.7,3.24-31.13,4.45a88.09,88.09,0,0,1-8.89.61c-1.57,0-3.14,0-4.71-.11-.8,0-1.59-.11-2.37-.19-.46,0-1.45,0-1.83-.3a1.34,1.34,0,0,0-1.9,1.9,4.33,4.33,0,0,0,3,1.12c1.5.17,3,.29,4.5.34a73.65,73.65,0,0,0,9.16-.25c5.91-.51,11.75-1.55,17.59-2.56s11.53-1.83,17.37-2.31c5-.41,10.13-.79,14.88-2.51a19.56,19.56,0,0,0,7-4,3.5,3.5,0,0,0,.73-3.81,44.6,44.6,0,0,0-1.63-4.81,1.11,1.11,0,0,0-2.14.59Z"/><path class="cls-1" d="M93.69,84.36a6,6,0,0,0-.26,6.86"/><path class="cls-2" d="M93.33,84a5.55,5.55,0,0,0-1.5,3.75,6.63,6.63,0,0,0,.23,2,3.39,3.39,0,0,0,1,1.83.49.49,0,0,0,.81-.47c-.15-.55-.41-1.06-.57-1.6a5.37,5.37,0,0,1-.21-1.69,6.7,6.7,0,0,1,1-3.18.51.51,0,0,0-.8-.62Z"/><path class="cls-1" d="M85.37,86.23a6.1,6.1,0,0,0,.83,6.48"/><path class="cls-2" d="M85,86a6.07,6.07,0,0,0-.7,3.74A4.75,4.75,0,0,0,86,93.12c.32.2.85-.14.69-.54s-.52-1-.76-1.49a5.44,5.44,0,0,1-.44-1.54,6.31,6.31,0,0,1,.39-3.19c.21-.52-.62-.86-.89-.38Z"/><path class="cls-1" d="M69,90.39a4.78,4.78,0,0,0,.49,4.16"/><path class="cls-2" d="M68.5,90.24a5.25,5.25,0,0,0-.3,2.39,4.91,4.91,0,0,0,.28,1.19,2.08,2.08,0,0,0,.8,1.14.48.48,0,0,0,.72-.41,1.64,1.64,0,0,0-.14-.56l-.2-.49a5.3,5.3,0,0,1-.27-1,4.89,4.89,0,0,1,0-1,3.89,3.89,0,0,1,.21-.95.55.55,0,0,0-1.06-.3Z"/><path class="cls-1" d="M102.26,87c3.89-1.06,7.08-3.83,10.62-5.78a53.17,53.17,0,0,1,9.43-3.73"/><path class="cls-2" d="M102.26,88c1.68.06,3.62-1.11,5-1.9,1.62-.91,3.19-1.92,4.79-2.87a35.42,35.42,0,0,1,5.1-2.5c1-.38,1.92-.73,2.89-1.06a14.57,14.57,0,0,0,2.86-1.1c1-.62.67-2.46-.64-2.36A21.32,21.32,0,0,0,116.62,78a32.44,32.44,0,0,0-5.3,2.58c-1.55.94-3,2-4.53,3A26.3,26.3,0,0,1,104.32,85a22.07,22.07,0,0,0-2.57,1.15,1,1,0,0,0,.51,1.89Z"/><path class="cls-1" d="M102.6,87.64l10.14-4.73a27.85,27.85,0,0,1,3.93-1.59,29.16,29.16,0,0,1,6.51-.84"/><path class="cls-2" d="M102.86,88.59a21.09,21.09,0,0,0,5.11-2c1.76-.79,3.52-1.6,5.27-2.4a23.37,23.37,0,0,1,5.09-1.86c1.72-.36,3.76-.19,5.34-1a1,1,0,0,0-.23-1.78c-1.68-.63-3.91-.19-5.64.13a22,22,0,0,0-5.39,1.91c-1.81.84-3.61,1.7-5.41,2.56a22.36,22.36,0,0,0-5.1,2.8c-.82.72.09,1.78,1,1.65Z"/><path class="cls-1" d="M102.79,88.13l9.4-3.56a19.68,19.68,0,0,1,3-1c2.25-.47,4.71-.23,6.95-.71"/><path class="cls-2" d="M102.79,89.23a24,24,0,0,0,5-1.63c1.73-.64,3.46-1.29,5.2-1.92a16.75,16.75,0,0,1,4.74-1c1.6-.1,3.48.06,4.85-.91a1,1,0,0,0-.23-1.81,18.14,18.14,0,0,0-5.15,0,16.91,16.91,0,0,0-4.76,1c-1.67.63-3.32,1.29-5,1.93a26.12,26.12,0,0,0-5.27,2.22c-.8.55-.63,2.21.55,2.06Z"/><path class="cls-1" d="M103.27,89.34A82.72,82.72,0,0,0,124.51,84"/><path class="cls-2" d="M103.27,90.43a12.88,12.88,0,0,0,3.15-.24c.9-.12,1.79-.24,2.69-.39q2.81-.48,5.58-1.15c1.83-.44,3.64-1,5.43-1.58,1.64-.54,3.95-1,5.15-2.3a1.09,1.09,0,0,0-.76-1.83c-1.65-.1-3.57,1-5.12,1.48-1.8.58-3.61,1.09-5.44,1.57s-3.55.88-5.35,1.23c-.9.18-1.81.35-2.71.51a15,15,0,0,0-2.91.56,1.1,1.1,0,0,0,.29,2.14Z"/><path class="cls-1" d="M103.38,89.88a98,98,0,0,0,22.41-2.79"/><path class="cls-2" d="M103.38,91a50.5,50.5,0,0,0,12-.51c2-.25,3.9-.54,5.84-.91,1.73-.33,4-.55,5.35-1.69a1.15,1.15,0,0,0-.51-1.91c-1.75-.38-3.89.42-5.63.75s-3.78.68-5.68.92-3.84.47-5.76.63-4,.22-5.94.51c-1.36.19-.84,2.07.3,2.21Z"/><path class="cls-1" d="M103.21,90a56.37,56.37,0,0,0,23.32-1"/><path class="cls-2" d="M103,90.87a21.23,21.23,0,0,0,6.41,1,56.5,56.5,0,0,0,6.24.1,50.37,50.37,0,0,0,6-.62c1-.16,1.91-.34,2.85-.55a4.56,4.56,0,0,0,2.74-1.2,1,1,0,0,0-.43-1.64,4.52,4.52,0,0,0-2.62.14c-1,.2-1.9.38-2.86.54-2,.32-3.93.52-5.9.65a57.76,57.76,0,0,1-6,.06,47.39,47.39,0,0,0-6.17-.3.92.92,0,0,0-.24,1.79Z"/></svg>